# Blender v2.79 (sub 0) OBJ File: ''
# www.blender.org
o object1
v -0.111091 1.000000 0.111091
v -0.200000 1.000000 0.500000
v -0.111091 -0.000000 0.111091
v -0.200000 -0.000000 0.500000
v -0.500000 1.000000 0.200000
v -0.500000 1.000000 0.500000
v -0.500000 -0.000000 0.500000
v -0.500000 -0.000000 0.200000
vn 0.9749 -0.0000 0.2229
vn -0.0000 1.0000 0.0000
vn -1.0000 0.0000 0.0000
vn -0.2229 0.0000 -0.9749
vn 0.0000 -1.0000 -0.0000
vn 0.0000 -0.0000 1.0000
s 1
f 1//1 2//1 3//1
f 2//1 4//1 3//1
f 5//2 6//2 2//2
f 1//2 5//2 2//2
f 6//3 5//3 7//3
f 5//3 8//3 7//3
f 5//4 1//4 3//4
f 5//4 3//4 8//4
f 4//5 7//5 8//5
f 4//5 8//5 3//5
f 2//6 6//6 4//6
f 6//6 7//6 4//6
