# Blender v2.79 (sub 0) OBJ File: ''
# www.blender.org
mtllib cliff_straight.mtl
o object1
v 0.000000 -0.000000 0.050000
v 0.500000 -0.000000 0.200000
v 0.500000 -0.000000 0.500000
v -0.500000 -0.000000 0.500000
v -0.500000 -0.000000 0.200000
v 0.500000 0.900000 -0.400000
v 0.500000 1.100000 -0.400000
v 0.500000 1.200000 -0.250000
v 0.500000 0.800000 0.000000
v 0.500000 1.200000 0.500000
v 0.500000 0.600000 0.100000
v 0.500000 0.900000 -0.150000
v 0.000000 1.200000 -0.200000
v -0.500000 1.200000 -0.250000
v -0.500000 1.200000 0.500000
v 0.000000 1.000000 -0.500000
v -0.500000 1.100000 -0.400000
v 0.000000 0.800000 -0.500000
v -0.500000 0.900000 -0.400000
v 0.000000 0.800000 -0.450000
v -0.500000 0.900000 -0.150000
v 0.000000 0.600000 -0.150000
v -0.500000 0.800000 0.000000
v 0.000000 0.300000 0.000000
v -0.500000 0.600000 0.100000
vt 0.000000 1.000000
vt 1.000000 1.000000
vt 0.933333 0.500000
vt 1.000000 0.000000
vt 0.000000 0.000000
vt 0.000000 0.000000
vt 0.000000 1.000000
vt 1.000000 1.000000
vt 0.000000 0.000000
vt 0.000000 1.000000
vt 1.000000 1.000000
vt 1.000000 0.000000
vt 0.000000 0.000000
vt 0.000000 1.000000
vt 1.000000 0.000000
vt 1.000000 1.000000
vt 1.000000 1.000000
vt 1.000000 0.000000
vt 0.000000 1.000000
vt 0.000000 0.000000
vt 1.000000 1.000000
vt 1.000000 0.000000
vt 0.000000 1.000000
vt 0.000000 0.000000
vt 1.000000 1.000000
vt 1.000000 0.000000
vt 0.000000 0.000000
vt 0.000000 1.000000
vt 0.000000 0.500000
vt 0.333333 0.000000
vt 1.000000 0.000000
vt 1.000000 1.000000
vt 0.333333 1.000000
vt 0.000000 0.750000
vt 0.000000 0.916667
vt 0.166667 1.000000
vt 0.444444 0.666667
vt 1.000000 1.000000
vt 0.555556 0.500000
vt 0.666667 0.000000
vt 0.277778 0.750000
vt 0.000000 0.000000
vt 0.000000 1.000000
vt 1.000000 0.000000
vt 1.000000 1.000000
vt 0.000000 0.000000
vt 0.000000 1.000000
vt 1.000000 1.000000
vt 1.000000 0.000000
vt 1.000000 1.000000
vt 1.000000 0.000000
vt 0.000000 0.000000
vt 0.000000 1.000000
vt 1.000000 1.000000
vt 1.000000 0.000000
vt 0.000000 1.000000
vt 0.000000 0.000000
vt 1.000000 1.000000
vt 1.000000 0.000000
vt 0.000000 1.000000
vt 0.000000 0.000000
vt 0.000000 0.000000
vt 0.000000 1.000000
vt 1.000000 1.000000
vt 1.000000 0.000000
vt 0.166667 1.000000
vt 0.000000 0.916667
vt 0.000000 0.750000
vt 1.000000 1.000000
vt 0.444444 0.666667
vt 0.555556 0.500000
vt 1.000000 0.000000
vt 0.666667 0.000000
vt 0.277778 0.750000
vt 0.000000 0.000000
vn 0.0000 1.0000 0.0000
vn 0.0554 0.8308 -0.5538
vn -0.1961 0.0000 -0.9806
vn -0.1961 -0.9806 0.0000
vn -0.0554 0.8308 -0.5538
vn 0.1961 0.0000 -0.9806
vn 0.1961 -0.9806 0.0000
vn 0.0000 -1.0000 -0.0000
vn 1.0000 0.0000 0.0000
vn -0.4467 -0.7444 -0.4963
vn -0.4082 -0.4082 -0.8165
vn 0.4467 -0.7444 -0.4963
vn 0.4082 -0.4082 -0.8165
vn 0.2838 -0.1576 -0.9459
vn -0.2838 -0.1576 -0.9459
vn -1.0000 0.0000 0.0000
vn 0.0000 -0.0000 1.0000
usemtl Grass
s 1
f 10/1/1 8/2/1 13/3/1
f 13/3/1 14/4/1 15/5/1
f 10/1/1 13/3/1 15/5/1
f 13/6/2 16/7/2 17/8/2
f 13/6/2 17/8/2 14/4/2
f 16/9/3 18/10/3 19/11/3
f 16/9/3 19/11/3 17/12/3
f 18/13/4 20/14/4 19/15/4
f 20/14/4 21/16/4 19/15/4
f 16/17/5 13/18/5 7/19/5
f 13/18/5 8/20/5 7/19/5
f 18/21/6 16/22/6 6/23/6
f 16/22/6 7/24/6 6/23/6
f 20/25/7 18/26/7 6/27/7
f 20/25/7 6/27/7 12/28/7
usemtl Rock
f 1/29/8 2/30/8 3/31/8
f 3/31/8 4/32/8 1/29/8
f 4/32/8 5/33/8 1/29/8
f 6/34/9 7/35/9 8/36/9
f 9/37/9 8/36/9 10/38/9
f 11/39/9 10/38/9 3/31/9
f 3/31/9 2/40/9 11/39/9
f 11/39/9 9/37/9 10/38/9
f 9/37/9 12/41/9 8/36/9
f 12/41/9 6/34/9 8/36/9
f 20/42/10 22/43/10 21/44/10
f 22/43/10 23/45/10 21/44/10
f 22/46/11 24/47/11 25/48/11
f 22/46/11 25/48/11 23/49/11
f 22/50/12 20/51/12 12/52/12
f 22/50/12 12/52/12 9/53/12
f 24/54/13 22/55/13 11/56/13
f 22/55/13 9/57/13 11/56/13
f 1/58/14 24/59/14 2/60/14
f 24/59/14 11/61/14 2/60/14
f 24/62/15 1/63/15 5/64/15
f 24/62/15 5/64/15 25/65/15
f 14/66/16 17/67/16 19/68/16
f 15/69/16 14/66/16 23/70/16
f 25/71/16 4/72/16 15/69/16
f 25/71/16 5/73/16 4/72/16
f 15/69/16 23/70/16 25/71/16
f 14/66/16 21/74/16 23/70/16
f 14/66/16 19/68/16 21/74/16
f 3/75/17 10/1/17 4/72/17
f 10/1/17 15/69/17 4/72/17
