# Blender v2.79 (sub 0) OBJ File: ''
# www.blender.org
o object1.007
v 0.207107 -0.309810 -0.207107
v 0.207107 -0.109810 -0.207107
v 0.500000 -0.109810 0.500000
v 0.500000 -0.309810 0.500000
v 0.171751 -0.109810 -0.171751
v 0.150000 -0.109810 0.500000
v -0.500000 -0.109810 -0.500000
v -0.500000 -0.109810 -0.150000
v -0.500000 -0.309810 -0.500000
v 0.030330 0.090190 -0.030330
v -0.075736 0.390190 0.075736
v -0.100000 0.190190 0.500000
v 0.000000 -0.009810 0.500000
v -0.500000 0.190190 0.100000
v -0.500000 -0.009810 0.000000
v -0.111091 0.690190 0.111091
v -0.500000 0.690190 0.200000
v -0.500000 0.690190 0.500000
v -0.200000 0.690190 0.500000
v -0.500000 -0.309810 0.500000
v 0.400000 2.590190 0.500000
v 0.150000 2.590190 0.500000
v 0.171751 2.490190 -0.171751
v 0.242462 2.490190 -0.242462
v 0.400000 2.790190 0.500000
v 0.242462 2.690190 -0.242462
v 0.250000 2.890190 0.500000
v -0.005025 2.890190 0.005025
v -0.500000 2.590190 -0.150000
v -0.500000 2.590190 -0.400000
v -0.500000 2.790190 -0.400000
v -0.500000 2.890190 -0.250000
v -0.500000 2.890190 0.500000
v -0.500000 2.490190 0.000000
v -0.500000 2.290190 0.100000
v -0.500000 1.690190 0.500000
v -0.500000 1.690190 0.200000
v 0.030330 2.290190 -0.030330
v 0.000000 2.490190 0.500000
v -0.100000 2.290190 0.500000
v -0.075736 1.990190 0.075736
v -0.200000 1.690190 0.500000
v -0.111091 1.690190 0.111091
v -0.111091 1.690190 0.111091
v -0.200000 1.690190 0.500000
v -0.111091 0.690190 0.111091
v -0.200000 0.690190 0.500000
v -0.500000 1.690190 0.200000
v -0.500000 1.690190 0.500000
v -0.500000 0.690190 0.500000
v -0.500000 0.690190 0.200000
vn 0.9239 0.0000 -0.3827
vn -0.0000 1.0000 0.0000
vn 0.3827 0.0000 -0.9239
vn 0.9487 0.2965 0.1102
vn 0.9456 0.2702 0.1814
vn 0.8652 0.4326 0.2534
vn 0.8863 0.4432 0.1343
vn -0.1814 0.2702 -0.9456
vn -0.1102 0.2965 -0.9487
vn -0.2534 0.4326 -0.8652
vn -0.1343 0.4432 -0.8863
vn -0.2220 0.0883 -0.9710
vn -0.1056 0.1041 -0.9889
vn -0.2187 0.1914 -0.9568
vn -0.1469 0.1940 -0.9699
vn -1.0000 0.0000 0.0000
vn -0.0000 -1.0000 -0.0000
vn -0.1434 0.5018 -0.8530
vn -0.0267 0.5645 -0.8250
vn -0.0180 0.8319 -0.5546
vn -0.1853 0.8176 -0.5451
vn 0.8250 0.5645 0.0267
vn 0.8530 0.5018 0.1434
vn 0.5546 0.8319 0.0180
vn 0.5451 0.8176 0.1853
vn 0.0000 -0.0000 1.0000
vn 0.9889 0.1041 0.1056
vn 0.9710 0.0883 0.2220
vn 0.9568 0.1914 0.2187
vn 0.9699 0.1940 0.1469
vn -0.0000 -0.9911 0.1335
vn 0.0000 -0.9891 0.1472
vn 0.1503 -0.9772 0.1503
vn 0.1098 -0.9879 0.1098
vn 0.9782 -0.0000 -0.2076
vn 0.5333 0.8000 -0.2748
vn 0.5406 0.8109 -0.2239
vn 0.4573 0.8575 -0.2356
vn 0.4742 0.8536 -0.2156
vn -0.1472 -0.9891 0.0000
vn -0.1335 -0.9911 0.0000
vn -0.1503 -0.9772 -0.1503
vn -0.1098 -0.9879 -0.1098
vn 0.2076 0.0000 -0.9782
vn 0.2239 0.8109 -0.5406
vn 0.2748 0.8000 -0.5333
vn 0.2356 0.8575 -0.4573
vn 0.2156 0.8536 -0.4742
vn -0.3266 -0.7864 -0.5243
vn -0.1404 -0.8238 -0.5492
vn -0.2207 -0.4543 -0.8631
vn -0.1053 -0.5234 -0.8455
vn 0.5492 -0.8238 0.1404
vn 0.5243 -0.7864 0.3266
vn 0.8631 -0.4543 0.2207
vn 0.8455 -0.5234 0.1053
vn 0.8736 -0.4368 0.2147
vn 0.8396 -0.4198 0.3449
vn 0.9471 -0.2786 0.1592
vn 0.9401 -0.2507 0.2310
vn 0.9720 -0.1620 0.1701
vn 0.9622 -0.1604 0.2200
vn 0.9866 -0.1012 0.1280
vn 0.9710 -0.0883 0.2220
vn -0.2200 -0.1604 -0.9622
vn -0.1701 -0.1620 -0.9720
vn -0.1280 -0.1012 -0.9866
vn -0.2220 -0.0883 -0.9710
vn -0.3449 -0.4198 -0.8396
vn -0.2147 -0.4368 -0.8736
vn -0.1592 -0.2786 -0.9471
vn -0.2310 -0.2507 -0.9401
vn 0.9749 -0.0000 0.2229
vn 0.9748 -0.0000 0.2229
vn -0.2229 0.0000 -0.9749
vn -0.2229 0.0000 -0.9748
s 1
f 1//1 2//1 3//1
f 1//1 3//1 4//1
f 2//2 5//2 6//2
f 2//2 7//2 8//2
f 5//2 2//2 8//2
f 2//2 6//2 3//2
f 2//3 1//3 7//3
f 1//3 9//3 7//3
f 10//4 11//5 12//6
f 10//4 12//6 13//7
f 11//8 10//9 14//10
f 10//9 15//11 14//10
f 16//12 11//13 17//14
f 11//13 14//15 17//14
f 17//2 18//2 19//2
f 16//2 17//2 19//2
f 8//16 7//16 9//16
f 15//16 8//16 20//16
f 20//16 18//16 14//16
f 18//16 17//16 14//16
f 14//16 15//16 20//16
f 8//16 9//16 20//16
f 20//17 9//17 1//17
f 20//17 1//17 4//17
f 10//18 5//19 8//20
f 10//18 8//20 15//21
f 5//22 10//23 6//24
f 10//23 13//25 6//24
f 4//26 3//26 6//26
f 20//26 6//26 13//26
f 12//26 18//26 20//26
f 12//26 19//26 18//26
f 20//26 13//26 12//26
f 20//26 4//26 6//26
f 11//27 16//28 19//29
f 11//27 19//29 12//30
f 21//31 22//32 23//33
f 21//31 23//33 24//34
f 25//35 21//35 26//35
f 21//35 24//35 26//35
f 27//36 25//37 28//38
f 25//37 26//39 28//38
f 29//40 30//41 23//42
f 30//41 24//43 23//42
f 30//44 31//44 26//44
f 30//44 26//44 24//44
f 31//45 32//46 28//47
f 31//45 28//47 26//48
f 33//2 27//2 28//2
f 33//2 28//2 32//2
f 32//16 31//16 30//16
f 33//16 32//16 34//16
f 35//16 36//16 33//16
f 35//16 37//16 36//16
f 33//16 34//16 35//16
f 32//16 29//16 34//16
f 32//16 30//16 29//16
f 34//49 29//50 38//51
f 29//50 23//52 38//51
f 22//53 39//54 38//55
f 22//53 38//55 23//56
f 39//57 40//58 38//59
f 40//58 41//60 38//59
f 40//61 42//62 41//63
f 42//62 43//64 41//63
f 21//26 25//26 27//26
f 39//26 27//26 33//26
f 33//26 36//26 40//26
f 36//26 42//26 40//26
f 40//26 39//26 33//26
f 39//26 22//26 27//26
f 22//26 21//26 27//26
f 42//17 36//17 37//17
f 37//17 43//17 42//17
f 37//65 35//66 41//67
f 37//65 41//67 43//68
f 35//69 34//70 38//71
f 35//69 38//71 41//72
f 44//73 45//73 46//74
f 45//73 47//73 46//74
f 48//2 49//2 45//2
f 44//2 48//2 45//2
f 49//16 48//16 50//16
f 48//16 51//16 50//16
f 48//75 44//76 46//75
f 48//75 46//75 51//75
f 47//17 50//17 51//17
f 47//17 51//17 46//17
f 45//26 49//26 47//26
f 49//26 50//26 47//26
