# Blender v2.79 (sub 0) OBJ File: ''
# www.blender.org
mtllib mine.mtl
o Cube
v 1.000000 0.073889 -1.000000
v 1.000000 0.073889 1.000000
v -1.000000 0.073889 1.000000
v -1.000000 0.073889 -1.000000
v 0.028090 2.073889 -0.028089
v 0.028089 2.073889 0.028090
v -0.028090 2.073889 0.028090
v -0.028090 2.073889 -0.028089
v 1.103103 0.123993 -1.000000
v 1.103103 0.123993 1.000000
v 0.131193 2.123993 -0.028089
v 0.131193 2.123993 0.028090
v 1.000000 0.126444 1.108148
v -1.000000 0.126444 1.108148
v 0.028089 2.126444 0.136238
v -0.028090 2.126444 0.136238
v -1.140993 0.142405 1.000000
v -1.140992 0.142405 -1.000000
v -0.169082 2.142405 0.028090
v -0.169082 2.142405 -0.028089
v 1.000000 0.108531 -1.071285
v -1.000000 0.108531 -1.071285
v 0.028090 2.108531 -0.099375
v -0.028090 2.108531 -0.099375
vn 0.0000 -1.0000 -0.0000
vn 0.0000 1.0000 0.0000
vn -0.4371 0.8994 -0.0000
vn -0.0000 -0.8994 0.4371
vn 0.1750 0.3602 0.9163
vn 0.0000 -0.8994 -0.4371
vn 0.8994 0.4371 0.0000
vn -0.1750 0.3602 0.9163
vn -0.1750 0.3602 -0.9163
vn 0.4371 -0.8994 0.0000
vn -0.0000 0.4371 0.8994
vn 0.0000 0.8994 -0.4371
vn -0.9163 0.3602 -0.1750
vn 0.9163 0.3602 -0.1750
vn -0.8994 0.4371 -0.0000
vn 0.4371 0.8994 0.0000
vn 0.1750 0.3602 -0.9163
vn -0.4371 -0.8994 -0.0000
vn 0.0000 0.4371 -0.8994
vn 0.9163 0.3602 0.1750
vn -0.0000 0.8994 0.4371
vn -0.9163 0.3602 0.1750
usemtl Material
s off
f 1//1 2//1 3//1 4//1
f 5//2 8//2 7//2 6//2
f 5//3 6//3 12//3 11//3
f 3//4 2//4 13//4 14//4
f 3//5 7//5 19//5 17//5
f 1//6 4//6 22//6 21//6
f 9//7 11//7 12//7 10//7
f 6//8 2//8 10//8 12//8
f 1//9 5//9 11//9 9//9
f 2//10 1//10 9//10 10//10
f 13//11 15//11 16//11 14//11
f 6//12 7//12 16//12 15//12
f 7//13 3//13 14//13 16//13
f 2//14 6//14 15//14 13//14
f 17//15 19//15 20//15 18//15
f 7//16 8//16 20//16 19//16
f 8//17 4//17 18//17 20//17
f 4//18 3//18 17//18 18//18
f 23//19 21//19 22//19 24//19
f 5//20 1//20 21//20 23//20
f 8//21 5//21 23//21 24//21
f 4//22 8//22 24//22 22//22
