# Blender v2.79 (sub 0) OBJ File: ''
# www.blender.org
mtllib mine.mtl
o Cube
v 0.353004 2.262036 -0.353004
v 0.353004 2.262036 0.353004
v -0.353004 2.262036 0.353004
v -0.353004 2.262036 -0.353004
v 0.003924 2.968044 -0.003924
v 0.003924 2.968044 0.003924
v -0.003924 2.968044 0.003924
v -0.003924 2.968044 -0.003924
v 0.023153 0.212273 -0.023153
v 0.023153 0.212273 0.023153
v -0.023153 0.212273 -0.023153
v -0.023153 0.212273 0.023153
vn -0.9873 -0.1589 -0.0000
vn 0.0000 1.0000 0.0000
vn 0.8964 0.4432 0.0000
vn -0.0000 0.4432 0.8964
vn -0.8964 0.4432 -0.0000
vn 0.0000 0.4432 -0.8964
vn 0.0000 -1.0000 -0.0000
vn -0.0000 -0.1589 0.9873
vn 0.0000 -0.1589 -0.9873
vn 0.9873 -0.1589 0.0000
usemtl Material
s off
f 3//1 4//1 11//1 12//1
f 5//2 8//2 7//2 6//2
f 1//3 5//3 6//3 2//3
f 2//4 6//4 7//4 3//4
f 3//5 7//5 8//5 4//5
f 5//6 1//6 4//6 8//6
f 9//7 10//7 12//7 11//7
f 2//8 3//8 12//8 10//8
f 4//9 1//9 9//9 11//9
f 1//10 2//10 10//10 9//10
