# Blender v2.79 (sub 0) OBJ File: ''
# www.blender.org
o Rock7_Cube.009
v -1.175054 -0.066340 0.950434
v -1.645104 2.523497 0.223226
v -1.215524 -0.091653 -0.891834
v -1.470015 2.641855 -1.314279
v 0.931302 -0.088638 1.253192
v 0.600156 2.507151 0.265431
v 0.824973 -0.114282 -0.868799
v 0.417929 2.789543 -1.612799
v 0.163068 -0.131929 -1.053684
v -0.525952 -0.143623 -1.063373
v -1.048347 2.656053 -1.949759
v -0.441475 2.733638 -2.014448
v -0.552864 -0.350019 1.413503
v 0.272073 -0.304465 1.324540
v -0.287460 2.632019 0.479042
v -1.147284 2.607160 0.459504
v -0.920349 0.605886 0.690862
v -1.049667 1.343607 0.591966
v -1.043053 1.432639 -1.388743
v -1.309297 0.566488 -1.046798
v 1.093377 1.513226 -1.094937
v 0.853051 0.474224 -1.071469
v 0.603510 1.650899 0.564144
v 0.897739 0.511848 1.218262
v 0.186020 1.783195 1.319942
v 0.544574 0.116559 1.649768
v -0.653950 1.837184 1.291451
v -0.338472 -0.026993 1.627894
v -0.832062 1.158346 -2.236282
v -0.753855 0.229339 -1.988735
v -0.127546 1.230708 -2.331995
v 0.077929 0.352794 -2.031026
v -1.338964 -0.091026 -0.337445
v -1.329688 -0.091026 0.327875
v -1.585545 2.609988 -0.480385
v -1.557752 2.597307 -1.026708
v 1.040949 -0.395938 0.576230
v 1.002971 -0.389722 -0.127327
v 0.771511 2.657706 -0.962769
v 0.797292 2.619194 -0.326223
v -0.021547 3.083004 -1.260544
v -0.071827 3.075208 -0.317242
v -0.739039 3.076600 -1.372692
v -0.795892 3.133919 -0.358746
v -0.548858 -0.091653 -0.225168
v -0.533846 -0.104862 0.528816
v 0.138230 -0.094205 -0.210231
v 0.175611 -0.102469 0.517289
v 1.398560 0.146357 0.019008
v 1.374602 0.169647 0.699023
v 1.611489 1.832899 -0.541506
v 1.594404 1.884687 0.092949
v -1.691724 0.573380 -0.002781
v -1.698813 0.575592 -0.676606
v -1.818583 1.385954 -0.241519
v -1.999496 1.323949 -0.979896
vn -0.7845 -0.1605 -0.5989
vn -0.5092 0.0422 -0.8596
vn -0.4010 0.1057 -0.9100
vn 0.5933 0.1567 -0.7896
vn 0.5612 0.1767 -0.8086
vn 0.6998 0.0825 -0.7095
vn 0.4582 0.5353 0.7095
vn 0.4866 0.6017 0.6334
vn 0.3476 0.3101 0.8849
vn -0.6036 0.0369 0.7964
vn -0.7782 0.0057 0.6280
vn -0.8659 -0.0145 0.5001
vn -0.0377 -0.9976 0.0574
vn -0.0434 -0.9970 0.0633
vn 0.2742 -0.9247 -0.2641
vn -0.4556 0.8638 0.2151
vn -0.4225 0.8841 0.1997
vn -0.5612 0.7845 0.2640
vn 0.3250 0.8367 0.4409
vn 0.3545 0.8402 0.4103
vn 0.4446 0.8413 0.3075
vn 0.0065 0.8596 0.5110
vn -0.0054 0.8564 0.5163
vn 0.0420 0.8681 0.4946
vn -0.1420 -0.9818 -0.1263
vn -0.1318 -0.9851 -0.1104
vn -0.0292 -0.9985 0.0468
vn 0.0118 -0.9670 -0.2545
vn 0.0139 -0.9664 -0.2565
vn 0.0245 -0.9635 -0.2665
vn 0.5811 0.5774 0.5735
vn 0.5204 0.5306 0.6691
vn 0.7006 0.6598 0.2715
vn -0.0159 0.7183 0.6956
vn 0.0012 0.7145 0.6996
vn 0.0217 0.7097 0.7042
vn -0.9397 -0.1459 -0.3093
vn -0.8782 -0.2025 -0.4334
vn -0.9726 -0.1003 -0.2097
vn -0.1444 0.1730 -0.9743
vn -0.1323 0.1703 -0.9765
vn -0.1501 0.1743 -0.9732
vn 0.0598 -0.9028 -0.4259
vn 0.0797 -0.9062 -0.4152
vn 0.0215 -0.8949 -0.4457
vn -0.0426 -0.3000 -0.9530
vn -0.0563 -0.2921 -0.9547
vn 0.0000 -0.3243 -0.9460
vn -0.5661 -0.6116 -0.5527
vn -0.5893 -0.6385 -0.4951
vn -0.2515 -0.2556 -0.9335
vn -0.9224 -0.0297 -0.3850
vn -0.9275 -0.0375 -0.3719
vn -0.8512 0.0556 -0.5219
vn 0.0948 -0.6321 0.7690
vn 0.1078 -0.6160 0.7803
vn 0.1184 -0.6024 0.7893
vn -0.0306 0.1762 0.9839
vn -0.0451 0.1802 0.9826
vn -0.0540 0.1827 0.9817
vn 0.6057 -0.2903 0.7409
vn 0.5453 -0.3980 0.7377
vn 0.2987 -0.6969 0.6519
vn 0.6732 0.3237 0.6648
vn 0.7797 0.3978 0.4835
vn 0.6029 0.2777 0.7479
vn -0.6254 0.1652 0.7627
vn -0.5959 0.3662 0.7146
vn -0.6232 -0.1010 0.7755
vn -0.8560 -0.0650 0.5129
vn -0.8586 -0.0624 0.5088
vn -0.8648 -0.0563 0.4990
vn 0.8087 -0.2901 0.5117
vn 0.8082 -0.1943 0.5559
vn 0.7651 -0.5306 0.3648
vn 0.6443 0.3950 0.6549
vn 0.4908 0.3290 0.8068
vn 0.7858 0.4479 0.4265
vn 0.5090 -0.5976 -0.6194
vn 0.4788 -0.5647 -0.6722
vn 0.2624 -0.3254 -0.9084
vn 0.7552 -0.1005 -0.6478
vn 0.7403 -0.1371 -0.6582
vn 0.7795 -0.0320 -0.6256
vn -0.7696 -0.3958 -0.5010
vn -0.8016 -0.4558 -0.3868
vn -0.8233 -0.5374 -0.1827
vn -0.4573 -0.3443 -0.8200
vn -0.4868 -0.3739 -0.7894
vn -0.6044 -0.4956 -0.6238
vn -0.6956 0.0254 0.7180
vn -0.7085 0.0469 0.7041
vn -0.6681 -0.0174 0.7438
vn -0.9632 -0.2230 0.1502
vn -0.9711 -0.2071 0.1185
vn -0.9884 -0.1514 0.0099
vn -0.8259 0.2132 0.5220
vn -0.8161 0.1961 0.5437
vn -0.8868 0.4147 0.2038
vn -0.8812 -0.4727 0.0096
vn -0.8810 -0.4730 0.0104
vn -0.8806 -0.4737 0.0123
vn 0.8042 -0.2571 -0.5358
vn 0.8196 -0.2408 -0.5200
vn 0.8486 -0.2073 -0.4868
vn 0.9928 -0.1135 0.0383
vn 0.9929 -0.1134 0.0366
vn 0.9928 -0.1135 0.0389
vn 0.8399 -0.2935 -0.4565
vn 0.8230 -0.3832 -0.4193
vn 0.7929 -0.4841 -0.3702
vn 0.8339 -0.5520 -0.0020
vn 0.8347 -0.5507 -0.0003
vn 0.8100 -0.5844 -0.0489
vn 0.0070 -0.9986 0.0524
vn 0.0043 -0.9985 0.0545
vn -0.0050 -0.9981 0.0617
vn -0.0002 -0.9999 -0.0146
vn -0.0095 -0.9999 -0.0130
vn -0.0020 -0.9999 -0.0160
vn -0.0309 -0.9990 0.0309
vn -0.0340 -0.9988 0.0340
vn -0.0009 -1.0000 0.0009
vn -0.0066 -0.9999 -0.0081
vn -0.0008 -1.0000 0.0000
vn -0.0674 0.8666 -0.4944
vn -0.0233 0.8772 -0.4796
vn 0.0620 0.8919 -0.4479
vn 0.0315 0.9991 -0.0294
vn 0.0468 0.9988 -0.0162
vn 0.0801 0.9967 0.0125
vn 0.3665 0.8868 -0.2816
vn 0.3213 0.8852 -0.3366
vn 0.4982 0.8617 -0.0963
vn 0.4639 0.8853 0.0334
vn 0.4636 0.8854 0.0331
vn 0.4646 0.8848 0.0347
vn -0.5145 0.8486 -0.1232
vn -0.5095 0.8227 -0.2523
vn -0.5035 0.8041 -0.3161
vn -0.5376 0.8409 -0.0623
vn -0.5345 0.8425 -0.0672
vn -0.5279 0.8458 -0.0774
vn -0.1438 -0.9823 -0.1200
vn -0.1514 -0.9801 -0.1280
vn 0.0140 -0.9989 0.0451
vn -0.3226 -0.9465 0.0077
vn -0.3230 -0.9464 0.0072
vn -0.3239 -0.9461 0.0059
vn 0.7035 0.2736 -0.6559
vn 0.8109 0.2869 -0.5101
vn 0.6250 0.2607 -0.7358
vn 0.6911 0.7223 -0.0245
vn 0.6946 0.7194 -0.0003
vn 0.6885 0.7241 -0.0406
vn -0.9662 0.0436 0.2540
vn -0.8803 -0.0581 0.4709
vn -0.7295 -0.1604 0.6649
vn -0.9548 0.2958 0.0297
vn -0.9569 0.2522 0.1437
vn -0.9510 0.2229 0.2143
vn -0.8992 -0.2978 -0.3205
vn 0.3935 0.2680 -0.8794
vn 0.5416 0.7744 0.3271
vn -0.4363 0.0604 0.8978
vn -0.3223 -0.8805 0.3475
vn -0.2116 0.9721 0.1016
vn 0.2406 0.8190 0.5210
vn -0.0365 0.8473 0.5298
vn -0.2302 -0.9365 -0.2645
vn -0.0007 -0.9701 -0.2427
vn 0.2639 0.3186 0.9104
vn -0.0366 0.7225 0.6904
vn -0.8040 -0.2507 -0.5391
vn -0.1258 0.1689 -0.9776
vn 0.1151 -0.9112 -0.3956
vn -0.1031 -0.2642 -0.9589
vn -0.6673 -0.7331 -0.1311
vn -0.9709 -0.1345 -0.1982
vn 0.0857 -0.6432 0.7609
vn -0.0222 0.1739 0.9845
vn 0.7341 0.0803 0.6743
vn 0.8204 0.4290 0.3781
vn -0.5673 0.4748 0.6729
vn -0.8437 -0.0767 0.5314
vn 0.7599 0.0800 0.6451
vn 0.3610 0.2692 0.8928
vn 0.6000 -0.6946 -0.3968
vn 0.7203 -0.1817 -0.6694
vn -0.6685 -0.2594 -0.6970
vn -0.3572 -0.2459 -0.9011
vn -0.7302 0.0852 0.6779
vn -0.9292 -0.2718 0.2505
vn -0.6688 0.0056 0.7435
vn -0.8816 -0.4720 0.0077
vn 0.7763 -0.2849 -0.5623
vn 0.9929 -0.1134 0.0360
vn 0.8483 -0.2082 -0.4869
vn 0.8557 -0.5152 0.0478
vn 0.0163 -0.9988 0.0452
vn 0.0032 -0.9999 -0.0115
vn -0.0601 -0.9964 0.0601
vn -0.1627 0.8369 -0.5227
vn -0.0001 0.9984 -0.0564
vn 0.1747 0.8527 -0.4924
vn 0.4630 0.8858 0.0320
vn -0.5124 0.8584 -0.0234
vn -0.5472 0.8357 -0.0472
vn -0.2877 -0.9183 -0.2720
vn -0.3217 -0.9468 0.0090
vn 0.8641 0.2905 -0.4111
vn 0.6967 0.7172 0.0152
vn -0.9826 0.1750 -0.0617
vn -0.9439 0.3254 -0.0556
s 1
f 36//1 19//2 56//3
f 31//4 8//5 21//6
f 52//7 6//8 23//9
f 16//10 18//11 27//12
f 48//13 5//14 14//15
f 35//16 16//17 44//18
f 42//19 6//20 40//21
f 44//22 15//23 42//24
f 46//25 1//26 34//27
f 46//28 14//29 13//30
f 23//31 15//32 25//33
f 15//34 27//35 25//36
f 19//37 11//38 29//39
f 29//40 12//41 31//42
f 10//43 32//44 9//45
f 30//46 31//47 32//48
f 20//49 10//50 3//51
f 19//52 30//53 20//54
f 14//55 28//56 13//57
f 25//58 28//59 26//60
f 5//61 26//62 14//63
f 24//64 25//65 26//66
f 28//67 1//68 13//69
f 27//70 17//71 28//72
f 50//73 5//74 37//75
f 50//76 23//77 24//78
f 9//79 22//80 7//81
f 31//82 22//83 32//84
f 54//85 3//86 33//87
f 56//88 20//89 54//90
f 18//91 53//92 17//93
f 55//94 54//95 53//96
f 17//97 34//98 1//99
f 53//100 33//101 34//102
f 21//103 49//104 22//105
f 49//106 52//107 50//108
f 7//109 49//110 38//111
f 49//112 37//113 38//114
f 10//115 47//116 45//117
f 47//118 46//119 45//120
f 3//121 45//122 33//123
f 45//120 34//124 33//125
f 12//126 43//127 41//128
f 41//129 44//130 42//131
f 8//132 41//133 39//134
f 39//135 42//136 40//137
f 4//138 43//139 11//140
f 36//141 44//142 43//143
f 7//144 47//145 9//146
f 38//147 48//148 47//149
f 21//150 39//151 51//152
f 51//153 40//154 52//155
f 2//156 55//157 18//158
f 35//159 56//160 55//161
f 36//1 4//162 19//2
f 31//4 12//163 8//5
f 52//7 40//164 6//8
f 16//10 2//165 18//11
f 48//13 37//166 5//14
f 35//16 2//167 16//17
f 42//19 15//168 6//20
f 44//22 16//169 15//23
f 46//25 13//170 1//26
f 46//28 48//171 14//29
f 23//31 6//172 15//32
f 15//34 16//173 27//35
f 19//37 4//174 11//38
f 29//40 11//175 12//41
f 10//43 30//176 32//44
f 30//46 29//177 31//47
f 20//49 30//178 10//50
f 19//52 29//179 30//53
f 14//55 26//180 28//56
f 25//58 27//181 28//59
f 5//61 24//182 26//62
f 24//64 23//183 25//65
f 28//67 17//184 1//68
f 27//70 18//185 17//71
f 50//73 24//186 5//74
f 50//76 52//187 23//77
f 9//79 32//188 22//80
f 31//82 21//189 22//83
f 54//85 20//190 3//86
f 56//88 19//191 20//89
f 18//91 55//192 53//92
f 55//94 56//193 54//95
f 17//97 53//194 34//98
f 53//100 54//195 33//101
f 21//103 51//196 49//104
f 49//106 51//197 52//107
f 7//109 22//198 49//110
f 49//112 50//199 37//113
f 10//115 9//200 47//116
f 47//118 48//201 46//119
f 3//121 10//202 45//122
f 45//120 46//119 34//124
f 12//126 11//203 43//127
f 41//129 43//204 44//130
f 8//132 12//205 41//133
f 39//135 41//206 42//136
f 4//138 36//207 43//139
f 36//141 35//208 44//142
f 7//144 38//209 47//145
f 38//147 37//210 48//148
f 21//150 8//211 39//151
f 51//153 39//212 40//154
f 2//156 35//213 55//157
f 35//159 36//214 56//160
