# Blender v2.79 (sub 0) OBJ File: ''
# www.blender.org
o Cone
v -1.062117 2.866210 -3.730774
v -2.437207 2.865282 -2.714234
v -3.318966 2.865654 1.104645
v -1.699389 2.860901 3.073512
v 1.353691 2.858067 3.819471
v 3.048180 2.865653 2.024338
v -0.000000 -1.766441 0.000000
v 3.847137 2.863342 -0.335418
v 2.625443 2.861549 -2.761459
vn -0.4676 -0.6170 -0.6330
vn -0.8190 -0.5417 -0.1891
vn -0.6318 -0.5763 0.5183
vn -0.1920 -0.5909 0.7835
vn 0.5750 -0.6145 0.5402
vn 0.7526 -0.6069 0.2554
vn 0.7062 -0.6125 -0.3552
vn 0.2055 -0.5848 -0.7847
vn -0.0004 1.0000 0.0027
vn -0.0001 1.0000 0.0041
vn 0.0003 1.0000 -0.0009
vn 0.0008 1.0000 0.0019
vn 0.0007 1.0000 -0.0009
vn 0.0000 1.0000 -0.0001
s off
f 1//1 7//1 2//1
f 2//2 7//2 3//2
f 3//3 7//3 4//3
f 4//4 7//4 5//4
f 5//5 7//5 6//5
f 6//6 7//6 8//6
f 8//7 7//7 9//7
f 9//8 7//8 1//8
f 3//9 4//9 6//9
f 5//10 6//10 4//10
f 6//11 8//11 9//11
f 2//12 9//12 1//12
f 6//13 9//13 2//13
f 2//14 3//14 6//14
