# Blender v2.79 (sub 0) OBJ File: ''
# www.blender.org
o Cube
v 1.000000 -1.000000 -1.000000
v 1.000000 -1.000000 1.000000
v -1.000000 -1.000000 1.000000
v -1.000000 -1.000000 -1.000000
v 1.000000 1.000000 -0.999999
v 0.999999 1.000000 1.000001
v -1.000000 1.000000 1.000000
v -1.000000 1.000000 -1.000000
v 1.000000 -1.000000 0.000000
v 0.000000 -1.000000 -1.000000
v 1.000000 0.000000 -1.000000
v 0.000000 -1.000000 1.000000
v 1.000000 0.000000 1.000000
v -1.000000 -1.000000 -0.000000
v -1.000000 0.000000 1.000000
v -1.000000 0.000000 -1.000000
v 1.000000 1.000000 0.000001
v 0.000000 1.000000 -1.000000
v -0.000001 1.000000 1.000000
v -1.000000 1.000000 -0.000000
v 0.000000 0.000000 -1.000000
v -1.000000 0.000000 -0.000000
v -0.000000 0.000000 1.000000
v 1.000000 0.000000 0.000000
v 0.000000 2.291485 -0.500000
v 0.000000 -1.000000 -0.000000
v 1.000000 -1.000000 0.500000
v -0.500000 -1.000000 -1.000000
v 1.000000 0.500000 -1.000000
v -0.500000 -1.000000 1.000000
v 1.000000 0.500000 1.000000
v -1.000000 -1.000000 -0.500000
v -1.000000 0.500000 1.000000
v -1.000000 0.500000 -1.000000
v 1.000000 1.000000 0.500001
v -0.500000 1.000000 -1.000000
v -0.500000 1.000000 1.000000
v -1.000000 1.000000 -0.500000
v 1.000000 -1.000000 -0.500000
v 0.500000 -1.000000 -1.000000
v 1.000000 -0.500000 -1.000000
v 0.500000 -1.000000 1.000000
v 1.000000 -0.500000 1.000000
v -1.000000 -1.000000 0.500000
v -1.000000 -0.500000 1.000000
v -1.000000 -0.500000 -1.000000
v 1.000000 1.000000 -0.499999
v 0.500000 1.000000 -1.000000
v 0.499999 1.000000 1.000000
v -1.000000 1.000000 0.500000
v -0.500000 0.000000 -1.000000
v 0.500000 0.000000 -1.000000
v 0.000000 0.500000 -1.000000
v 0.000000 -0.500000 -1.000000
v -1.000000 0.000000 -0.500000
v -1.000000 0.000000 0.500000
v -1.000000 -0.500000 -0.000000
v -1.000000 0.500000 -0.000000
v -0.500000 0.000000 1.000000
v 0.500000 0.000000 1.000000
v -0.000000 -0.500000 1.000000
v -0.000000 0.500000 1.000000
v 1.000000 0.000000 0.500000
v 1.000000 0.000000 -0.500000
v 1.000000 -0.500000 0.000000
v 1.000000 0.500000 0.000000
v 0.500000 2.456278 0.500000
v 0.500000 2.456278 0.000000
v -0.000000 2.456278 0.500000
v -0.000000 2.456278 0.000000
v -0.500000 -1.000000 -0.000000
v 0.500000 -1.000000 -0.000000
v 0.000000 -1.000000 -0.500000
v 0.000000 -1.000000 0.500000
v 0.500000 -1.000000 0.500000
v 0.500000 -1.000000 -0.500000
v -0.500000 -1.000000 -0.500000
v -0.500000 2.364095 0.500000
v -0.000000 2.364095 0.500000
v -0.000000 2.364095 0.000000
v 1.000000 0.500000 -0.500000
v 1.000000 -0.500000 -0.500000
v 1.000000 -0.500000 0.500000
v 0.500000 0.500000 1.000000
v 0.500000 -0.500000 1.000000
v -0.500000 -0.500000 1.000000
v -1.000000 0.500000 0.500000
v -1.000000 -0.500000 0.500000
v -1.000000 -0.500000 -0.500000
v 0.500000 -0.500000 -1.000000
v 0.500000 0.500000 -1.000000
v -0.500000 0.500000 -1.000000
v -0.500000 -0.500000 -1.000000
v -1.000000 0.500000 -0.500000
v -0.500000 0.500000 1.000000
v 1.000000 0.500000 0.500000
v -0.500000 2.364095 0.000000
v -0.500000 -1.000000 0.500000
v 1.000000 1.697612 0.500001
v 0.999999 1.697612 1.000001
v -0.500000 1.697612 -1.000000
v -1.000000 1.697612 -1.000000
v -0.500000 1.697612 1.000000
v -1.000000 1.697612 1.000000
v -1.000000 1.697612 -0.500000
v 1.000000 1.697612 -0.499999
v 1.000000 1.697612 0.000001
v 0.500000 1.697612 -1.000000
v 0.000000 1.697612 -1.000000
v 0.499999 1.697612 1.000000
v -0.000001 1.697612 1.000000
v -1.000000 1.697612 0.500000
v -1.000000 1.697612 -0.000000
v -0.000000 1.697612 0.500000
v 0.000000 1.697612 -0.500000
v -0.000000 1.697612 0.000000
v 0.500000 1.697612 0.000000
v -0.500000 1.697612 0.000000
v 1.000000 1.697612 -0.999999
v -0.500000 1.697612 -0.500000
v 0.500000 1.697612 -0.500000
v 0.500000 1.697612 0.500000
v -0.500000 1.697612 0.500000
v -0.000000 2.291485 0.000000
v -0.500000 2.291485 0.000000
v -0.500000 2.291485 -0.500000
v 0.000000 2.419133 -0.500000
v -0.000000 2.419133 0.000000
v 0.500000 2.419133 0.000000
v 0.500000 2.419133 -0.500000
v -1.000000 1.819879 -0.000000
v -1.000000 1.819879 -0.500000
v -0.500000 1.819879 0.000000
v -0.500000 1.819879 -0.500000
v -0.500000 1.766764 -1.000000
v -1.000000 1.766764 -1.000000
v -1.000000 1.766764 -0.500000
v -0.500000 1.766764 -0.500000
v -1.000000 1.787946 0.500000
v -1.000000 1.787946 -0.000000
v -0.500000 1.787946 0.000000
v -0.500000 1.787946 0.500000
v -0.500000 1.897455 1.000000
v -1.000000 1.897455 1.000000
v -1.000000 1.897455 0.500000
v -0.500000 1.897455 0.500000
v -0.000000 1.779211 0.500000
v -0.000001 1.779211 1.000000
v -0.500000 1.779211 1.000000
v -0.500000 1.779211 0.500000
v 0.499999 1.825209 1.000000
v -0.000001 1.825209 1.000000
v -0.000000 1.825209 0.500000
v 0.500000 1.825209 0.500000
v 1.000000 1.769170 0.500001
v 0.999999 1.769170 1.000001
v 0.499999 1.769170 1.000000
v 0.500000 1.769170 0.500000
v 0.500000 1.840921 0.000000
v 1.000000 1.840921 0.000001
v 1.000000 1.840921 0.500001
v 0.500000 1.840921 0.500000
v 1.000000 1.909829 -0.499999
v 1.000000 1.909829 0.000001
v 0.500000 1.909829 0.000000
v 0.500000 1.909829 -0.500000
v 1.000000 1.838792 -0.999999
v 1.000000 1.838792 -0.499999
v 0.500000 1.838792 -1.000000
v 0.500000 1.838792 -0.500000
v 0.500000 1.942680 -1.000000
v 0.000000 1.942680 -1.000000
v 0.000000 1.942680 -0.500000
v 0.500000 1.942680 -0.500000
v 0.000000 1.863219 -1.000000
v -0.500000 1.863219 -1.000000
v 0.000000 1.863219 -0.500000
v -0.500000 1.863219 -0.500000
v -0.784726 2.172735 0.243652
v -0.478925 2.172735 0.664554
v -0.700202 2.615298 -0.016474
v 0.458429 2.888811 -0.016474
v 0.015871 2.172735 0.825324
v 0.510668 2.172735 0.664554
v 0.816469 2.172735 0.243652
v -0.342164 2.888813 0.243651
v 0.015871 3.014531 -0.016474
v 0.816469 2.172735 -0.276599
v 0.373907 1.456656 -0.276598
v 0.237154 1.730170 -0.697497
v 0.768797 2.549199 -0.016474
v -0.120883 1.456656 -0.437368
v -0.563444 1.730171 -0.437369
v 0.731944 1.730172 -0.016474
v -0.426686 1.456659 -0.016474
v 0.248534 2.549203 -0.732548
v -0.593259 2.549203 -0.459028
v -0.563444 1.730171 0.404422
v -0.593259 2.549203 0.426080
v 0.237154 1.730170 0.664550
v 0.373907 1.456656 0.243651
v -0.120883 1.456656 0.404421
v 0.248534 2.549203 0.699601
v 0.510668 2.172735 -0.697501
v 0.625002 1.796266 -0.459028
v -0.216791 1.796266 -0.732548
v -0.205411 2.615299 -0.697497
v -0.737054 1.796270 -0.016474
v -0.342164 2.888813 -0.276598
v 0.015871 2.172735 -0.858271
v 0.595187 2.615298 -0.437369
v -0.216791 1.796266 0.699601
v 0.625002 1.796266 0.426080
v 0.152626 2.888813 -0.437368
v 0.152626 2.888813 0.404421
v 0.595187 2.615298 0.404422
v -0.478925 2.172735 -0.697501
v 0.015871 1.330938 -0.016474
v -0.205411 2.615299 0.664550
v -0.784726 2.172735 -0.276599
vn 0.0000 -1.0000 0.0000
vn -1.0000 0.0000 -0.0000
vn 1.0000 0.0000 0.0000
vn -0.0000 0.0000 1.0000
vn 0.0000 0.0000 -1.0000
vn 0.0000 1.0000 0.0000
vn -0.3035 0.1876 -0.9342
vn -0.9050 0.3304 0.2680
vn -0.5346 0.3304 -0.7779
vn -0.0247 0.3304 -0.9435
vn -0.7002 0.6617 0.2680
vn -0.9822 0.1876 0.0000
vn -0.4911 -0.7947 0.3568
vn -0.3066 -0.1256 -0.9435
vn -0.8026 0.1256 0.5831
vn -0.1024 0.9435 -0.3151
vn -0.9050 0.3304 -0.2680
vn -0.7002 0.6617 -0.2680
vn -0.9921 -0.1256 0.0000
vn 0.4089 0.6617 -0.6284
vn 0.5346 -0.3304 0.7779
vn 0.1876 -0.7947 -0.5773
vn -0.8897 -0.3304 0.3151
vn 0.7240 0.6617 -0.1947
vn 0.9050 -0.3304 -0.2680
vn -0.8026 0.1256 -0.5831
vn 0.8897 0.3304 0.3151
vn -0.1876 0.7947 0.5773
vn 0.9822 -0.1876 0.0000
vn 0.0247 -0.3304 -0.9435
vn 0.0385 0.6617 0.7488
vn -0.4089 -0.6617 -0.6284
vn 0.5746 0.3304 0.7488
vn 0.0385 0.6617 -0.7488
vn 0.0247 -0.3304 0.9435
vn 0.7947 0.1876 0.5773
vn -0.1024 0.9435 0.3151
vn 0.4713 -0.6617 -0.5831
vn 0.7002 -0.6617 -0.2680
vn -0.4911 -0.7947 -0.3568
vn 0.6071 -0.7947 0.0000
vn -0.7947 -0.1876 -0.5773
vn -0.5346 0.3304 0.7779
vn 0.9921 0.1256 0.0000
vn -0.0385 -0.6617 0.7488
vn 0.8897 0.3304 -0.3151
vn 0.7947 0.1876 -0.5773
vn 0.1024 -0.9435 -0.3151
vn 0.1024 -0.9435 0.3151
vn 0.9050 -0.3304 0.2680
vn -0.5746 -0.3304 -0.7488
vn 0.7002 -0.6617 0.2680
vn 0.4713 -0.6617 0.5831
vn -0.0385 -0.6617 -0.7488
vn -0.3035 0.1876 0.9342
vn 0.3313 -0.9435 0.0000
vn 0.1876 -0.7947 0.5773
vn -0.0247 0.3304 0.9435
vn 0.2680 0.9435 -0.1947
vn 0.5746 0.3304 -0.7488
vn -0.7240 -0.6617 -0.1947
vn 0.8026 -0.1256 0.5831
vn 0.5346 -0.3304 -0.7779
vn -0.2680 -0.9435 0.1947
vn 0.4089 0.6617 0.6284
vn 0.3066 0.1256 0.9435
vn -0.7240 -0.6617 0.1947
vn -0.5746 -0.3304 0.7488
vn -0.8897 -0.3304 -0.3151
vn 0.7240 0.6617 0.1947
vn 0.3035 -0.1876 0.9342
vn -0.1876 0.7947 -0.5773
vn 0.4911 0.7947 0.3568
vn 0.4911 0.7947 -0.3568
vn -0.7947 -0.1876 0.5773
vn 0.2680 0.9435 0.1947
vn -0.3066 -0.1256 0.9435
vn 0.8026 -0.1256 -0.5831
vn -0.2680 -0.9435 -0.1947
vn -0.4713 0.6617 0.5831
vn -0.4713 0.6617 -0.5831
vn 0.3035 -0.1876 -0.9342
vn -0.6071 0.7947 0.0000
vn -0.4089 -0.6617 0.6284
vn 0.3066 0.1256 -0.9435
vn -0.3313 0.9435 0.0000
s off
f 30//1 44//1 98//1
f 38//2 102//2 8//2
f 35//3 31//3 96//3
f 37//4 33//4 95//4
f 94//2 8//2 34//2
f 28//5 46//5 93//5
f 51//5 34//5 92//5
f 52//5 53//5 91//5
f 40//5 54//5 90//5
f 55//2 46//2 89//2
f 56//2 57//2 88//2
f 50//2 58//2 87//2
f 59//4 45//4 86//4
f 60//4 61//4 85//4
f 49//4 62//4 84//4
f 63//3 43//3 83//3
f 64//3 65//3 82//3
f 47//3 66//3 81//3
f 6//4 110//4 49//4
f 37//4 104//4 7//4
f 48//5 119//5 5//5
f 71//1 32//1 77//1
f 72//1 73//1 76//1
f 75//1 12//1 74//1
f 72//1 74//1 26//1
f 9//1 75//1 72//1
f 27//1 42//1 75//1
f 40//1 73//1 10//1
f 39//1 40//1 1//1
f 39//1 72//1 76//1
f 77//1 4//1 28//1
f 10//1 77//1 28//1
f 73//1 71//1 77//1
f 8//5 101//5 36//5
f 5//3 106//3 47//3
f 50//2 113//2 20//2
f 35//3 100//3 6//3
f 20//2 105//2 38//2
f 49//4 111//4 19//4
f 19//4 103//4 37//4
f 18//5 108//5 48//5
f 36//5 109//5 18//5
f 81//3 24//3 64//3
f 29//3 64//3 11//3
f 5//3 81//3 29//3
f 82//3 9//3 39//3
f 41//3 39//3 1//3
f 11//3 82//3 41//3
f 83//3 2//3 27//3
f 65//3 27//3 9//3
f 24//3 83//3 65//3
f 84//4 23//4 60//4
f 31//4 60//4 13//4
f 6//4 84//4 31//4
f 85//4 12//4 42//4
f 43//4 42//4 2//4
f 13//4 85//4 43//4
f 86//4 3//4 30//4
f 61//4 30//4 12//4
f 23//4 86//4 61//4
f 87//2 22//2 56//2
f 33//2 56//2 15//2
f 7//2 87//2 33//2
f 88//2 14//2 44//2
f 45//2 44//2 3//2
f 15//2 88//2 45//2
f 89//2 4//2 32//2
f 14//2 89//2 32//2
f 22//2 89//2 57//2
f 90//5 21//5 52//5
f 41//5 52//5 11//5
f 1//5 90//5 41//5
f 91//5 18//5 48//5
f 29//5 48//5 5//5
f 11//5 91//5 29//5
f 92//5 8//5 36//5
f 53//5 36//5 18//5
f 21//5 92//5 53//5
f 51//5 46//5 16//5
f 54//5 51//5 21//5
f 10//5 93//5 54//5
f 94//2 16//2 55//2
f 22//2 94//2 55//2
f 20//2 94//2 58//2
f 95//4 15//4 59//4
f 62//4 59//4 23//4
f 19//4 95//4 62//4
f 96//3 13//3 63//3
f 66//3 63//3 24//3
f 17//3 96//3 66//3
f 47//3 107//3 17//3
f 7//2 112//2 50//2
f 17//3 99//3 35//3
f 98//1 14//1 71//1
f 74//1 71//1 26//1
f 74//1 30//1 98//1
f 104//2 145//2 112//2
f 122//3 151//3 110//3
f 121//3 129//3 117//3
f 113//2 132//2 105//2
f 120//5 25//5 115//5
f 109//3 177//3 115//3
f 120//4 137//4 105//4
f 107//4 165//4 117//4
f 106//4 170//4 121//4
f 115//2 172//2 109//2
f 110//2 158//2 122//2
f 117//5 160//5 107//5
f 122//4 69//4 114//4
f 114//3 148//3 111//3
f 123//2 97//2 118//2
f 123//4 139//4 112//4
f 97//6 79//6 80//6
f 118//5 80//5 116//5
f 116//3 79//3 114//3
f 114//4 78//4 123//4
f 68//6 69//6 67//6
f 116//5 68//5 117//5
f 117//3 67//3 122//3
f 114//2 70//2 116//2
f 126//6 124//6 25//6
f 118//2 126//2 120//2
f 116//4 125//4 118//4
f 115//3 124//3 116//3
f 127//6 129//6 130//6
f 117//4 128//4 116//4
f 116//2 127//2 115//2
f 115//5 130//5 121//5
f 134//6 131//6 133//6
f 120//3 133//3 118//3
f 105//5 134//5 120//5
f 118//4 131//4 113//4
f 135//6 137//6 138//6
f 105//2 136//2 102//2
f 101//3 138//3 120//3
f 102//5 135//5 101//5
f 140//6 142//6 141//6
f 118//3 142//3 123//3
f 112//2 140//2 113//2
f 113//5 141//5 118//5
f 145//6 143//6 146//6
f 112//5 146//5 123//5
f 103//4 144//4 104//4
f 123//3 143//3 103//3
f 150//6 148//6 147//6
f 123//5 147//5 114//5
f 111//4 149//4 103//4
f 103//2 150//2 123//2
f 154//6 152//6 151//6
f 111//2 153//2 114//2
f 110//4 152//4 111//4
f 114//5 154//5 122//5
f 158//6 156//6 155//6
f 99//3 156//3 100//3
f 100//4 157//4 110//4
f 122//5 155//5 99//5
f 159//6 161//6 160//6
f 122//2 159//2 117//2
f 107//3 161//3 99//3
f 99//4 162//4 122//4
f 166//6 164//6 163//6
f 121//5 163//5 106//5
f 117//2 166//2 121//2
f 106//3 164//3 107//3
f 169//6 168//6 167//6
f 108//5 167//5 119//5
f 121//2 169//2 108//2
f 119//3 168//3 106//3
f 172//6 174//6 171//6
f 121//4 173//4 115//4
f 108//3 174//3 121//3
f 109//5 171//5 108//5
f 176//6 177//6 175//6
f 115//4 178//4 120//4
f 101//5 175//5 109//5
f 120//2 176//2 101//2
f 210//7 217//7 207//7
f 179//8 199//8 181//8
f 217//9 197//9 207//9
f 210//10 207//10 196//10
f 181//11 199//11 186//11
f 220//12 179//12 181//12
f 195//13 202//13 198//13
f 206//14 217//14 210//14
f 179//15 180//15 199//15
f 214//16 209//16 187//16
f 220//17 181//17 197//17
f 197//18 181//18 209//18
f 208//19 179//19 220//19
f 211//20 196//20 214//20
f 200//21 213//21 184//21
f 189//22 192//22 190//22
f 208//23 198//23 179//23
f 191//24 211//24 182//24
f 194//25 205//25 188//25
f 217//26 220//26 197//26
f 185//27 191//27 216//27
f 186//28 219//28 215//28
f 185//29 194//29 188//29
f 190//30 206//30 210//30
f 219//31 203//31 215//31
f 192//32 193//32 206//32
f 184//33 216//33 203//33
f 196//34 207//34 214//34
f 212//35 200//35 183//35
f 184//36 185//36 216//36
f 186//37 215//37 187//37
f 189//38 190//38 205//38
f 194//39 189//39 205//39
f 192//40 195//40 193//40
f 194//41 201//41 189//41
f 217//42 193//42 220//42
f 180//43 219//43 199//43
f 185//44 188//44 191//44
f 202//45 200//45 212//45
f 188//46 211//46 191//46
f 188//47 204//47 211//47
f 218//48 192//48 189//48
f 218//49 201//49 202//49
f 213//50 194//50 185//50
f 206//51 193//51 217//51
f 213//52 201//52 194//52
f 201//53 213//53 200//53
f 192//54 206//54 190//54
f 180//55 183//55 219//55
f 201//56 218//56 189//56
f 202//57 201//57 200//57
f 183//58 203//58 219//58
f 182//59 214//59 187//59
f 204//60 196//60 211//60
f 195//61 208//61 193//61
f 213//62 185//62 184//62
f 205//63 190//63 204//63
f 218//64 202//64 195//64
f 203//65 216//65 215//65
f 183//66 184//66 203//66
f 195//67 198//67 208//67
f 198//68 212//68 180//68
f 193//69 208//69 220//69
f 216//70 191//70 182//70
f 183//71 200//71 184//71
f 214//72 207//72 209//72
f 215//73 216//73 182//73
f 182//74 211//74 214//74
f 179//75 198//75 180//75
f 215//76 182//76 187//76
f 212//77 183//77 180//77
f 205//78 204//78 188//78
f 218//79 195//79 192//79
f 199//80 219//80 186//80
f 207//81 197//81 209//81
f 204//82 190//82 210//82
f 209//83 181//83 186//83
f 202//84 212//84 198//84
f 204//85 210//85 196//85
f 209//86 186//86 187//86
f 30//1 3//1 44//1
f 38//2 105//2 102//2
f 35//3 6//3 31//3
f 37//4 7//4 33//4
f 94//2 38//2 8//2
f 28//5 4//5 46//5
f 51//5 16//5 34//5
f 52//5 21//5 53//5
f 40//5 10//5 54//5
f 55//2 16//2 46//2
f 56//2 22//2 57//2
f 50//2 20//2 58//2
f 59//4 15//4 45//4
f 60//4 23//4 61//4
f 49//4 19//4 62//4
f 63//3 13//3 43//3
f 64//3 24//3 65//3
f 47//3 17//3 66//3
f 6//4 100//4 110//4
f 37//4 103//4 104//4
f 48//5 108//5 119//5
f 71//1 14//1 32//1
f 72//1 26//1 73//1
f 75//1 42//1 12//1
f 72//1 75//1 74//1
f 9//1 27//1 75//1
f 27//1 2//1 42//1
f 40//1 76//1 73//1
f 39//1 76//1 40//1
f 39//1 9//1 72//1
f 77//1 32//1 4//1
f 10//1 73//1 77//1
f 73//1 26//1 71//1
f 8//5 102//5 101//5
f 5//3 119//3 106//3
f 50//2 112//2 113//2
f 35//3 99//3 100//3
f 20//2 113//2 105//2
f 49//4 110//4 111//4
f 19//4 111//4 103//4
f 18//5 109//5 108//5
f 36//5 101//5 109//5
f 81//3 66//3 24//3
f 29//3 81//3 64//3
f 5//3 47//3 81//3
f 82//3 65//3 9//3
f 41//3 82//3 39//3
f 11//3 64//3 82//3
f 83//3 43//3 2//3
f 65//3 83//3 27//3
f 24//3 63//3 83//3
f 84//4 62//4 23//4
f 31//4 84//4 60//4
f 6//4 49//4 84//4
f 85//4 61//4 12//4
f 43//4 85//4 42//4
f 13//4 60//4 85//4
f 86//4 45//4 3//4
f 61//4 86//4 30//4
f 23//4 59//4 86//4
f 87//2 58//2 22//2
f 33//2 87//2 56//2
f 7//2 50//2 87//2
f 88//2 57//2 14//2
f 45//2 88//2 44//2
f 15//2 56//2 88//2
f 89//2 46//2 4//2
f 14//2 57//2 89//2
f 22//2 55//2 89//2
f 90//5 54//5 21//5
f 41//5 90//5 52//5
f 1//5 40//5 90//5
f 91//5 53//5 18//5
f 29//5 91//5 48//5
f 11//5 52//5 91//5
f 92//5 34//5 8//5
f 53//5 92//5 36//5
f 21//5 51//5 92//5
f 51//5 93//5 46//5
f 54//5 93//5 51//5
f 10//5 28//5 93//5
f 94//2 34//2 16//2
f 22//2 58//2 94//2
f 20//2 38//2 94//2
f 95//4 33//4 15//4
f 62//4 95//4 59//4
f 19//4 37//4 95//4
f 96//3 31//3 13//3
f 66//3 96//3 63//3
f 17//3 35//3 96//3
f 47//3 106//3 107//3
f 7//2 104//2 112//2
f 17//3 107//3 99//3
f 98//1 44//1 14//1
f 74//1 98//1 71//1
f 74//1 12//1 30//1
f 104//2 144//2 145//2
f 122//3 154//3 151//3
f 121//3 130//3 129//3
f 113//2 131//2 132//2
f 120//5 126//5 25//5
f 109//3 175//3 177//3
f 120//4 138//4 137//4
f 107//4 164//4 165//4
f 106//4 168//4 170//4
f 115//2 173//2 172//2
f 110//2 157//2 158//2
f 117//5 159//5 160//5
f 122//4 67//4 69//4
f 114//3 147//3 148//3
f 123//2 78//2 97//2
f 123//4 142//4 139//4
f 97//6 78//6 79//6
f 118//5 97//5 80//5
f 116//3 80//3 79//3
f 114//4 79//4 78//4
f 68//6 70//6 69//6
f 116//5 70//5 68//5
f 117//3 68//3 67//3
f 114//2 69//2 70//2
f 126//6 125//6 124//6
f 118//2 125//2 126//2
f 116//4 124//4 125//4
f 115//3 25//3 124//3
f 127//6 128//6 129//6
f 117//4 129//4 128//4
f 116//2 128//2 127//2
f 115//5 127//5 130//5
f 134//6 132//6 131//6
f 120//3 134//3 133//3
f 105//5 132//5 134//5
f 118//4 133//4 131//4
f 135//6 136//6 137//6
f 105//2 137//2 136//2
f 101//3 135//3 138//3
f 102//5 136//5 135//5
f 140//6 139//6 142//6
f 118//3 141//3 142//3
f 112//2 139//2 140//2
f 113//5 140//5 141//5
f 145//6 144//6 143//6
f 112//5 145//5 146//5
f 103//4 143//4 144//4
f 123//3 146//3 143//3
f 150//6 149//6 148//6
f 123//5 150//5 147//5
f 111//4 148//4 149//4
f 103//2 149//2 150//2
f 154//6 153//6 152//6
f 111//2 152//2 153//2
f 110//4 151//4 152//4
f 114//5 153//5 154//5
f 158//6 157//6 156//6
f 99//3 155//3 156//3
f 100//4 156//4 157//4
f 122//5 158//5 155//5
f 159//6 162//6 161//6
f 122//2 162//2 159//2
f 107//3 160//3 161//3
f 99//4 161//4 162//4
f 166//6 165//6 164//6
f 121//5 166//5 163//5
f 117//2 165//2 166//2
f 106//3 163//3 164//3
f 169//6 170//6 168//6
f 108//5 169//5 167//5
f 121//2 170//2 169//2
f 119//3 167//3 168//3
f 172//6 173//6 174//6
f 121//4 174//4 173//4
f 108//3 171//3 174//3
f 109//5 172//5 171//5
f 176//6 178//6 177//6
f 115//4 177//4 178//4
f 101//5 176//5 175//5
f 120//2 178//2 176//2
