# Blender v2.79 (sub 0) OBJ File: ''
# www.blender.org
o Cube_Cube.002
v -1.000000 0.618302 1.000000
v -1.000000 2.618302 1.000000
v -1.000000 0.618302 -1.000000
v -1.000000 2.618302 -1.000000
v 1.000000 0.618302 1.000000
v 1.000000 2.618302 1.000000
v 1.000000 0.618302 -1.000000
v 1.000000 2.618302 -1.000000
v -1.000000 0.618302 0.000000
v -1.000000 1.618302 1.000000
v -1.000000 2.618302 0.000000
v -1.000000 1.618302 -1.000000
v 0.000000 0.618302 -1.000000
v 0.000000 2.618302 -1.000000
v 1.000000 1.618302 -1.000000
v 1.000000 0.618302 0.000000
v 1.000000 2.618302 0.000000
v 1.000000 1.618302 1.000000
v 0.000000 0.618302 1.000000
v 0.000000 2.618302 1.000000
v 0.000000 2.618302 0.000000
v 0.000000 0.618302 0.000000
v -1.000000 0.618302 0.500000
v -1.000000 2.118302 1.000000
v -1.000000 2.618302 -0.500000
v -1.000000 1.118302 -1.000000
v -0.500000 0.618302 -1.000000
v 0.500000 2.618302 -1.000000
v 1.000000 1.118302 -1.000000
v 1.000000 0.618302 -0.500000
v 1.000000 2.618302 0.500000
v 1.000000 1.118302 1.000000
v 0.500000 0.618302 1.000000
v -0.500000 2.618302 1.000000
v -1.000000 0.618302 -0.500000
v -1.000000 1.118302 1.000000
v -1.000000 2.618302 0.500000
v -1.000000 2.118302 -1.000000
v 0.500000 0.618302 -1.000000
v -0.500000 2.618302 -1.000000
v 1.000000 2.118302 -1.000000
v 1.000000 0.618302 0.500000
v 1.000000 2.618302 -0.500000
v 1.000000 2.118302 1.000000
v -0.500000 0.618302 1.000000
v 0.500000 2.618302 1.000000
v 0.000000 2.618302 0.500000
v 0.000000 2.618302 -0.500000
v 0.500000 2.618302 0.000000
v -0.500000 2.618302 0.000000
v 0.000000 0.618302 0.500000
v 0.000000 0.618302 -0.500000
v -0.500000 0.618302 0.000000
v 0.500000 0.618302 0.000000
v -0.500000 1.618302 1.000000
v 0.500000 1.618302 1.000000
v 0.000000 1.118302 1.000000
v 0.000000 2.118302 1.000000
v 1.000000 1.618302 0.500000
v 1.000000 1.618302 -0.500000
v 1.000000 1.118302 0.000000
v 1.000000 2.118302 0.000000
v 0.500000 1.618302 -1.000000
v -0.500000 1.618302 -1.000000
v 0.000000 1.118302 -1.000000
v 0.000000 2.118302 -1.000000
v -1.000000 1.618302 -0.500000
v -1.000000 1.618302 0.500000
v -1.000000 1.118302 0.000000
v -1.000000 2.118302 0.000000
v -1.000000 2.118302 0.500000
v -1.000000 1.118302 0.500000
v -1.000000 1.118302 -0.500000
v -0.500000 2.118302 -1.000000
v -0.500000 1.118302 -1.000000
v 0.500000 1.118302 -1.000000
v 1.000000 2.118302 -0.500000
v 1.000000 1.118302 -0.500000
v 1.000000 1.118302 0.500000
v 0.500000 2.118302 1.000000
v 0.500000 1.118302 1.000000
v -0.500000 1.118302 1.000000
v 0.500000 0.618302 -0.500000
v -0.500000 0.618302 -0.500000
v -0.500000 0.618302 0.500000
v -0.500000 2.618302 -0.500000
v 0.500000 2.618302 -0.500000
v 0.500000 2.618302 0.500000
v -0.500000 2.618302 0.500000
v 0.500000 0.618302 0.500000
v -0.500000 2.118302 1.000000
v 1.000000 2.118302 0.500000
v 0.500000 2.118302 -1.000000
v -1.000000 2.118302 -0.500000
v 1.000000 2.618302 -0.500000
v 0.500000 2.618302 -1.000000
v 0.500000 2.618302 -0.500000
v -1.000000 2.618302 0.500000
v -0.500000 2.618302 -1.000000
v 0.500000 2.618302 1.000000
v -1.000000 2.618302 -0.500000
v 1.000000 2.618302 0.500000
v -0.500000 2.618302 1.000000
v -0.500000 2.618302 -0.500000
v -0.500000 2.618302 0.500000
v 0.500000 2.618302 0.500000
v -1.000000 1.118302 -1.000000
v -1.000000 1.118302 1.000000
v -1.000000 2.118302 -1.000000
v -1.000000 2.118302 1.000000
v -1.000000 1.118302 0.000000
v -1.000000 2.118302 0.000000
v -1.000000 2.118302 -0.500000
v -1.000000 1.118302 -0.500000
v -1.000000 1.118302 0.500000
v -1.000000 2.118302 0.500000
vn -1.0000 0.0000 0.0000
vn 0.0000 0.0000 -1.0000
vn 1.0000 0.0000 0.0000
vn 0.0000 0.0000 1.0000
vn 0.0000 -1.0000 0.0000
vn 0.0000 1.0000 0.0000
s off
f 25//1 38//1 94//1
f 28//2 41//2 93//2
f 31//3 44//3 92//3
f 34//4 24//4 91//4
f 42//5 33//5 90//5
f 37//6 34//6 89//6
f 47//6 46//6 88//6
f 48//6 49//6 87//6
f 25//6 50//6 86//6
f 51//5 45//5 85//5
f 52//5 53//5 84//5
f 30//5 54//5 83//5
f 55//4 36//4 82//4
f 46//4 58//4 80//4
f 59//3 32//3 79//3
f 43//3 62//3 77//3
f 63//2 29//2 76//2
f 40//2 66//2 74//2
f 67//1 26//1 73//1
f 37//1 70//1 71//1
f 24//1 68//1 10//1
f 2//1 71//1 24//1
f 72//1 9//1 23//1
f 36//1 23//1 1//1
f 10//1 72//1 36//1
f 73//1 3//1 35//1
f 69//1 35//1 9//1
f 38//2 64//2 12//2
f 4//2 74//2 38//2
f 75//2 13//2 27//2
f 26//2 27//2 3//2
f 12//2 75//2 26//2
f 76//2 7//2 39//2
f 65//2 39//2 13//2
f 41//3 60//3 15//3
f 8//3 77//3 41//3
f 78//3 16//3 30//3
f 29//3 30//3 7//3
f 15//3 78//3 29//3
f 79//3 5//3 42//3
f 61//3 42//3 16//3
f 44//4 56//4 18//4
f 6//4 80//4 44//4
f 81//4 19//4 33//4
f 32//4 33//4 5//4
f 18//4 81//4 32//4
f 82//4 1//4 45//4
f 57//4 45//4 19//4
f 83//5 22//5 52//5
f 39//5 52//5 13//5
f 7//5 83//5 39//5
f 84//5 9//5 35//5
f 27//5 35//5 3//5
f 13//5 84//5 27//5
f 85//5 1//5 23//5
f 53//5 23//5 9//5
f 22//5 85//5 53//5
f 86//6 21//6 48//6
f 40//6 48//6 14//6
f 4//6 86//6 40//6
f 87//6 17//6 43//6
f 28//6 43//6 8//6
f 14//6 87//6 28//6
f 88//6 6//6 31//6
f 49//6 31//6 17//6
f 21//6 88//6 49//6
f 89//6 20//6 47//6
f 50//6 47//6 21//6
f 11//6 89//6 50//6
f 90//5 19//5 51//5
f 54//5 51//5 22//5
f 16//5 90//5 54//5
f 91//4 10//4 55//4
f 20//4 91//4 58//4
f 92//3 18//3 59//3
f 17//3 92//3 62//3
f 93//2 15//2 63//2
f 14//2 93//2 66//2
f 94//1 12//1 67//1
f 11//1 94//1 70//1
f 30//4 97//4 83//4
f 83//1 96//1 39//1
f 85//3 103//3 45//3
f 90//3 100//3 33//3
f 84//4 101//4 35//4
f 42//4 106//4 90//4
f 84//1 99//1 27//1
f 85//4 98//4 23//4
f 79//6 108//6 32//6
f 92//5 112//5 62//5
f 78//6 111//6 61//6
f 62//5 113//5 77//5
f 61//6 115//6 79//6
f 92//6 110//6 44//6
f 78//5 107//5 29//5
f 77//5 109//5 41//5
f 25//1 4//1 38//1
f 28//2 8//2 41//2
f 31//3 6//3 44//3
f 34//4 2//4 24//4
f 42//5 5//5 33//5
f 37//6 2//6 34//6
f 47//6 20//6 46//6
f 48//6 21//6 49//6
f 25//6 11//6 50//6
f 51//5 19//5 45//5
f 52//5 22//5 53//5
f 30//5 16//5 54//5
f 55//4 10//4 36//4
f 46//4 20//4 58//4
f 59//3 18//3 32//3
f 43//3 17//3 62//3
f 63//2 15//2 29//2
f 40//2 14//2 66//2
f 67//1 12//1 26//1
f 37//1 11//1 70//1
f 24//1 71//1 68//1
f 2//1 37//1 71//1
f 72//1 69//1 9//1
f 36//1 72//1 23//1
f 10//1 68//1 72//1
f 73//1 26//1 3//1
f 69//1 73//1 35//1
f 38//2 74//2 64//2
f 4//2 40//2 74//2
f 75//2 65//2 13//2
f 26//2 75//2 27//2
f 12//2 64//2 75//2
f 76//2 29//2 7//2
f 65//2 76//2 39//2
f 41//3 77//3 60//3
f 8//3 43//3 77//3
f 78//3 61//3 16//3
f 29//3 78//3 30//3
f 15//3 60//3 78//3
f 79//3 32//3 5//3
f 61//3 79//3 42//3
f 44//4 80//4 56//4
f 6//4 46//4 80//4
f 81//4 57//4 19//4
f 32//4 81//4 33//4
f 18//4 56//4 81//4
f 82//4 36//4 1//4
f 57//4 82//4 45//4
f 83//5 54//5 22//5
f 39//5 83//5 52//5
f 7//5 30//5 83//5
f 84//5 53//5 9//5
f 27//5 84//5 35//5
f 13//5 52//5 84//5
f 85//5 45//5 1//5
f 53//5 85//5 23//5
f 22//5 51//5 85//5
f 86//6 50//6 21//6
f 40//6 86//6 48//6
f 4//6 25//6 86//6
f 87//6 49//6 17//6
f 28//6 87//6 43//6
f 14//6 48//6 87//6
f 88//6 46//6 6//6
f 49//6 88//6 31//6
f 21//6 47//6 88//6
f 89//6 34//6 20//6
f 50//6 89//6 47//6
f 11//6 37//6 89//6
f 90//5 33//5 19//5
f 54//5 90//5 51//5
f 16//5 42//5 90//5
f 91//4 24//4 10//4
f 20//4 34//4 91//4
f 92//3 44//3 18//3
f 17//3 31//3 92//3
f 93//2 41//2 15//2
f 14//2 28//2 93//2
f 94//1 38//1 12//1
f 11//1 25//1 94//1
f 30//4 95//4 97//4
f 83//1 97//1 96//1
f 85//3 105//3 103//3
f 90//3 106//3 100//3
f 84//4 104//4 101//4
f 42//4 102//4 106//4
f 84//1 104//1 99//1
f 85//4 105//4 98//4
f 79//6 115//6 108//6
f 92//5 116//5 112//5
f 78//6 114//6 111//6
f 62//5 112//5 113//5
f 61//6 111//6 115//6
f 92//6 116//6 110//6
f 78//5 114//5 107//5
f 77//5 113//5 109//5
