# Blender v2.79 (sub 0) OBJ File: ''
# www.blender.org
mtllib Tree.mtl
o DeadOak3_Icosphere.002
v -0.942882 -0.053564 1.268465
v -1.054412 1.718474 0.865937
v -1.456939 -0.053564 -0.591778
v -1.054412 1.718474 -0.703307
v 0.917360 -0.053564 0.754409
v 0.472116 1.872720 0.708026
v 0.403303 -0.053564 -1.105834
v 0.472116 1.872720 -0.555090
v -1.534165 4.352855 1.175269
v -1.864515 3.912272 -0.644110
v -0.523940 4.589191 -0.703306
v -0.557538 4.662132 1.060505
v -3.812205 5.872327 0.630754
v -3.812204 5.872327 -0.468122
v -2.729445 6.059833 -0.468122
v -2.729445 6.059833 0.630754
v -4.635678 9.129096 0.273412
v -4.635678 9.129096 -0.110780
v -4.257120 9.194653 -0.110780
v -4.257121 9.194653 0.273412
v 0.119605 3.145584 -0.555090
v -0.243214 3.527153 0.865938
v -1.184911 3.218396 0.865938
v -1.395927 2.956574 -0.619607
v 1.582230 5.126616 -0.296962
v 1.582230 5.126616 0.459594
v 2.271059 4.737590 -0.296963
v 2.271058 4.737590 0.459594
v 3.152894 7.586588 -0.145940
v 3.152894 7.586587 0.308572
v 3.566718 7.352875 -0.145940
v 3.566718 7.352875 0.308572
v 3.366245 9.494378 -0.044378
v 3.366245 9.494379 0.207010
v 3.629108 9.493993 -0.044377
v 3.629108 9.493992 0.207010
v -2.963774 6.996672 0.559717
v -3.906544 6.833409 0.559717
v -3.906543 6.833409 -0.397085
v -2.963774 6.996672 -0.397085
v -3.040827 6.991297 2.479288
v -3.632892 6.880324 2.490107
v -3.670474 7.255872 2.116753
v -3.154957 7.352499 2.107332
v -3.534260 8.523027 3.810835
v -3.680791 8.495564 3.813512
v -3.690093 8.588509 3.721110
v -3.562507 8.612422 3.718780
v 3.318163 6.851167 -0.174912
v 3.318163 6.851167 0.337544
v 2.851583 7.114675 -0.174912
v 2.851583 7.114676 0.337544
v 3.463294 7.949107 -1.567240
v 3.217093 8.088154 -1.567240
v 3.315418 7.650621 -1.584477
v 3.037829 7.807393 -1.584477
v 3.849417 9.087770 -2.851169
v 3.721981 9.158508 -2.842754
v 3.779458 8.951992 -2.930741
v 3.635772 9.031746 -2.921253
v -0.523940 4.881182 0.686467
v -1.675018 3.981302 0.520312
v -1.395927 2.956574 0.764258
v 0.119604 3.145583 0.628022
v -0.721627 5.364630 2.161222
v -1.190541 5.291301 2.286034
v -1.115610 4.986312 2.745796
v -0.616298 5.025139 2.586986
v -0.233539 6.935582 3.138366
v -0.708649 6.801826 3.206135
v -0.667964 6.667540 3.374218
v -0.176349 6.751248 3.369544
v -0.174755 8.008647 3.198645
v -0.436282 7.926642 3.240193
v -0.411338 7.844310 3.343246
v -0.139691 7.895632 3.340380
v -0.997161 5.376564 -0.604459
v -0.997161 5.376564 0.767091
v -2.033557 4.811550 0.767091
v -2.033557 4.811550 -0.604460
v -1.518763 5.592511 -2.492146
v -0.672831 5.884230 -2.384586
v -1.477614 6.216010 -2.336031
v -1.128169 6.493553 -2.336031
v -0.904678 7.313917 -3.670250
v -0.615460 7.522415 -3.670251
v -1.126687 7.505105 -3.396483
v -0.845896 7.645562 -3.396484
v 0.211071 4.623134 0.553899
v 0.211071 4.623134 -0.511928
v 0.700775 3.640569 -0.420525
v 0.700775 3.640569 0.517856
v -1.678926 4.611420 -1.572100
v -0.618872 5.073524 -1.540619
v -1.077740 5.756899 -1.469923
v -1.732736 5.352793 -1.469923
v -0.639583 4.770370 1.666115
v -0.429756 4.033135 1.781713
v -1.362353 4.579066 1.785903
v -1.150261 3.859343 1.861118
vn -0.9843 0.1097 0.1384
vn -0.9839 0.1034 0.1459
vn -0.9639 -0.0002 0.2664
vn -0.0959 0.1448 -0.9848
vn -0.1191 0.1258 -0.9849
vn -0.2664 -0.0002 -0.9639
vn 0.9818 0.1395 -0.1286
vn 0.9793 0.1113 -0.1693
vn 0.9630 0.0417 -0.2661
vn 0.1751 0.1543 0.9724
vn 0.1864 0.1458 0.9716
vn 0.2654 0.0845 0.9604
vn 0.0000 -1.0000 -0.0000
vn -0.3447 0.9387 0.0000
vn 0.3669 0.9303 -0.0000
vn -0.9304 -0.3551 0.0914
vn -0.9394 -0.3354 0.0715
vn -0.8866 -0.4303 0.1698
vn 0.9656 0.2433 -0.0917
vn 0.9705 0.2248 -0.0867
vn 0.9612 0.2586 -0.0958
vn 0.0139 -0.0586 -0.9982
vn 0.0212 -0.0625 -0.9978
vn 0.0522 -0.0789 -0.9955
vn -0.0203 0.1174 0.9929
vn -0.5122 -0.8589 -0.0000
vn -0.0384 0.0873 0.9954
vn -0.0246 0.0950 0.9952
vn -0.0172 0.0991 0.9949
vn -0.0384 0.0873 -0.9954
vn -0.0246 0.0950 -0.9952
vn -0.0455 0.0834 -0.9955
vn -0.1706 0.9853 -0.0000
vn -0.0203 0.1174 -0.9929
vn 0.8619 0.5071 0.0000
vn -0.9531 -0.3027 -0.0000
vn 0.0604 0.0538 -0.9967
vn 0.0671 0.0483 -0.9966
vn 0.0940 0.0260 -0.9952
vn 0.0841 0.0961 0.9918
vn 0.0860 0.0946 0.9918
vn 0.0764 0.1025 0.9918
vn -0.9640 -0.2659 -0.0000
vn 0.9637 0.2669 0.0000
vn 0.8961 -0.4439 0.0000
vn 0.5727 -0.8198 0.0000
vn 0.0536 0.0073 0.9985
vn 0.0324 0.0199 0.9993
vn 0.0694 -0.0020 0.9976
vn 0.1228 0.0097 -0.9924
vn 0.0726 0.0398 -0.9966
vn 0.0351 0.0621 -0.9975
vn 0.0292 0.0442 0.9986
vn 0.0037 0.0522 0.9986
vn 0.0001 0.0532 0.9986
vn -0.8377 0.5258 0.1477
vn 0.0254 0.0451 0.9987
vn 0.0214 0.0477 0.9986
vn -0.8428 0.5381 -0.0000
vn 0.0015 1.0000 0.0000
vn -0.9938 0.1111 -0.0000
vn 0.9996 -0.0291 0.0000
vn 0.0245 0.0470 -0.9986
vn 0.0037 0.0522 -0.9986
vn 0.0263 0.0466 -0.9986
vn -0.9952 -0.0977 -0.0000
vn 0.9701 0.2427 -0.0000
vn -0.0126 0.0725 -0.9973
vn 0.1551 -0.8738 0.4609
vn 0.1654 -0.8701 0.4643
vn 0.1515 -0.8750 0.4598
vn 0.9526 0.3042 0.0031
vn 0.9643 0.2601 0.0502
vn 0.9560 0.2927 0.0192
vn 0.9518 0.3067 0.0058
vn -0.9856 -0.0661 0.1556
vn -0.9932 -0.0216 0.1148
vn -0.9816 -0.0837 0.1715
vn -0.1694 0.9568 -0.2362
vn -0.1774 0.9546 -0.2394
vn -0.1830 0.9529 -0.2417
vn -0.1171 0.6943 0.7101
vn -0.1172 0.6943 0.7101
vn 0.1314 -0.6259 0.7687
vn -0.1539 0.7592 -0.6325
vn -0.1538 0.7592 -0.6325
vn -0.9974 -0.0613 0.0387
vn -0.8428 0.5382 -0.0000
vn 0.0254 0.0451 -0.9987
vn -0.8412 0.5296 0.1090
vn -0.8494 0.5185 0.0987
vn -0.8408 0.5301 0.1095
vn 0.8754 -0.4198 -0.2398
vn -0.4411 -0.7810 -0.4421
vn 0.4671 0.8270 0.3129
vn 0.1787 0.4273 -0.8863
vn 0.3634 0.6399 0.6771
vn 0.3879 0.6249 0.6775
vn 0.3906 0.6232 0.6776
vn -0.3474 -0.6113 -0.7111
vn -0.3732 -0.5952 -0.7116
vn -0.3458 -0.6123 -0.7110
vn 0.8935 -0.4348 -0.1126
vn 0.9053 -0.4142 -0.0947
vn 0.9063 -0.4123 -0.0932
vn -0.5250 0.8302 -0.1876
vn -0.3774 0.9047 0.1979
vn -0.5554 0.7689 -0.3168
vn -0.6314 -0.0552 0.7735
vn -0.8174 -0.3032 0.4898
vn -0.5011 0.0689 0.8626
vn 0.7324 0.2365 0.6385
vn 0.9213 0.2323 0.3118
vn 0.9496 0.2257 0.2175
vn 0.1362 -0.4474 0.8839
vn 0.1386 -0.4307 0.8918
vn 0.1394 -0.4251 0.8943
vn -0.2903 0.5644 -0.7727
vn -0.2739 0.5672 -0.7767
vn -0.2707 0.5677 -0.7775
vn -0.2858 0.5933 -0.7525
vn -0.2877 0.5918 -0.7530
vn -0.2927 0.5879 -0.7541
vn 0.2420 -0.5903 0.7700
vn 0.2685 -0.5948 0.7578
vn 0.2849 -0.5973 0.7497
vn -0.9372 -0.1612 0.3093
vn -0.9649 -0.0299 0.2607
vn -0.9731 0.0842 0.2144
vn 0.0053 0.0252 0.9997
vn 0.0056 0.0253 0.9997
vn 0.0052 0.0252 0.9997
vn 0.2734 -0.4088 0.8707
vn 0.1144 -0.4265 0.8972
vn 0.3057 -0.4037 0.8623
vn -0.9524 0.1532 0.2636
vn -0.9448 0.1168 0.3060
vn -0.9428 0.1088 0.3151
vn 0.9447 -0.0990 -0.3127
vn -0.1363 0.7578 0.6381
vn -0.1364 0.7577 0.6382
vn -0.1364 0.7576 0.6383
vn -0.9004 0.2064 0.3829
vn 0.9626 -0.0377 -0.2682
vn -0.1620 0.0680 -0.9844
vn -0.1729 0.0656 -0.9828
vn -0.1764 0.0648 -0.9822
vn 0.3156 -0.6752 -0.6667
vn 0.3159 -0.6749 -0.6669
vn 0.3172 -0.6737 -0.6674
vn 0.0605 -0.1722 0.9832
vn 0.0621 -0.2177 0.9740
vn 0.0634 -0.2591 0.9638
vn -0.9445 -0.3223 0.0632
vn -0.9555 -0.2777 0.0996
vn -0.9673 -0.1893 0.1686
vn 0.7712 0.6354 -0.0389
vn 0.8150 0.5741 -0.0785
vn 0.7231 0.6907 -0.0000
vn -0.9419 0.1033 -0.3195
vn -0.8605 -0.1447 -0.4886
vn -0.9460 0.1361 -0.2942
vn -0.4484 0.6873 0.5714
vn -0.4862 0.6590 0.5738
vn -0.4315 0.6993 0.5699
vn -0.9786 -0.0041 -0.2058
vn -0.9796 0.0686 -0.1890
vn -0.9760 -0.0413 -0.2140
vn 0.7667 0.4953 0.4084
vn 0.7582 0.5097 0.4066
vn 0.7478 0.5266 0.4043
vn -0.3898 0.6264 -0.6751
vn -0.3760 0.6286 -0.6808
vn -0.4440 0.6159 -0.6508
vn 0.6773 0.4334 0.5945
vn 0.7612 0.3382 0.5533
vn 0.7922 0.2968 0.5333
vn 0.3134 -0.6064 -0.7308
vn 0.3925 -0.5790 -0.7146
vn 0.4120 -0.5714 -0.7097
vn -0.4855 0.6329 0.6031
vn -0.3587 0.6757 0.6440
vn -0.4985 0.6276 0.5980
vn 0.2277 0.0143 -0.9736
vn 0.2412 0.0134 -0.9704
vn 0.2131 0.0153 -0.9769
vn 0.1659 0.0392 0.9854
vn 0.1818 0.0380 0.9826
vn 0.1901 0.0374 0.9811
vn 0.6484 -0.7613 0.0000
vn 0.2073 0.9748 -0.0828
vn 0.1099 0.9834 -0.1444
vn 0.0083 0.9786 -0.2056
vn 0.8413 0.5117 0.1743
vn 0.8395 0.5152 0.1725
vn 0.8271 0.5388 0.1598
vn -0.9403 -0.1116 -0.3215
vn -0.9412 -0.0790 -0.3286
vn -0.9368 -0.1624 -0.3097
vn -0.4632 0.8046 0.3716
vn -0.4642 0.8036 0.3724
vn -0.4470 0.8200 0.3574
vn 0.3639 -0.7834 -0.5038
vn 0.3655 -0.7814 -0.5059
vn 0.3590 -0.7897 -0.4975
vn -0.9083 -0.2963 0.2952
vn -0.9078 -0.3026 0.2904
vn -0.9104 -0.2325 0.3423
vn 0.2625 -0.8177 0.5122
vn 0.2605 -0.8193 0.5109
vn 0.2670 -0.8144 0.5152
vn -0.2993 0.9270 -0.2259
vn -0.3067 0.9224 -0.2346
vn -0.2821 0.9371 -0.2057
vn 0.9604 0.2706 0.0658
vn 0.9615 0.2674 0.0628
vn 0.9647 0.2579 0.0540
vn -0.9752 0.2215 0.0000
vn 0.0657 0.2721 -0.9600
vn 0.9743 0.2252 0.0000
vn 0.0777 0.2255 0.9711
vn -0.9649 -0.2628 0.0000
vn 0.9761 0.2019 -0.0805
vn -0.0250 -0.0379 -0.9990
vn -0.0455 0.0834 0.9955
vn -0.0172 0.0991 -0.9949
vn 0.0329 0.0764 -0.9965
vn 0.0937 0.0883 0.9917
vn 0.0166 0.0294 0.9994
vn 0.1593 -0.0124 -0.9871
vn 0.0001 0.0532 -0.9986
vn 0.1712 -0.8680 0.4662
vn 0.9671 0.2466 0.0628
vn -0.9952 -0.0027 0.0975
vn -0.1659 0.9578 -0.2347
vn -0.8501 0.5175 0.0978
vn 0.3619 0.6408 0.6771
vn -0.3763 -0.5932 -0.7117
vn 0.8929 -0.4358 -0.1135
vn -0.2133 0.8513 0.4794
vn -0.8450 -0.3664 0.3896
vn 0.6932 0.2341 0.6817
vn 0.1356 -0.4517 0.8818
vn -0.2936 0.5639 -0.7719
vn -0.2823 0.5960 -0.7517
vn 0.2273 -0.5876 0.7765
vn -0.9130 -0.2341 0.3340
vn 0.0058 0.0253 0.9997
vn 0.0815 -0.4287 0.8998
vn -0.9530 0.1568 0.2593
vn -0.1363 0.7579 0.6380
vn -0.1598 0.0685 -0.9848
vn 0.3145 -0.6761 -0.6663
vn 0.0579 -0.1062 0.9927
vn -0.9181 -0.3965 0.0000
vn 0.8458 0.5221 -0.1097
vn -0.8256 -0.2071 -0.5249
vn -0.5090 0.6408 0.5747
vn -0.9777 0.1094 -0.1790
vn 0.7762 0.4788 0.4103
vn -0.3183 0.6364 -0.7026
vn 0.6630 0.4477 0.6000
vn 0.3033 -0.6095 -0.7325
vn -0.3405 0.6806 0.6487
vn 0.2514 0.0127 -0.9678
vn 0.1531 0.0401 0.9874
vn 0.3313 0.9435 0.0000
vn 0.8523 0.4889 0.1861
vn -0.9401 -0.0214 -0.3401
vn -0.4836 0.7838 0.3895
vn 0.3694 -0.7762 -0.5109
vn -0.9024 -0.3474 0.2551
vn 0.2545 -0.8236 0.5069
vn -0.3189 0.9145 -0.2491
vn 0.9555 0.2843 0.0786
usemtl DeadOakTreeTrunk
s 1
f 2//1 3//2 1//3
f 4//4 7//5 3//6
f 8//7 5//8 7//9
f 6//10 1//11 5//12
f 7//13 1//13 3//13
f 89//14 25//14 90//14
f 78//15 15//15 16//15
f 24//16 62//17 10//18
f 97//19 68//20 98//21
f 24//22 11//23 21//24
f 38//25 20//25 17//25
f 79//26 14//26 80//26
f 79//27 16//28 13//29
f 80//30 15//31 77//32
f 18//33 20//33 19//33
f 39//34 19//34 40//34
f 40//35 20//35 37//35
f 38//36 18//36 39//36
f 4//37 21//38 8//39
f 2//40 64//41 63//42
f 4//43 63//43 24//43
f 8//44 64//44 6//44
f 50//45 31//45 32//45
f 92//46 27//46 28//46
f 92//47 26//48 89//49
f 91//50 25//51 27//52
f 30//53 36//54 34//55
f 29//56 56//56 51//56
f 52//57 32//58 30//53
f 51//59 30//59 29//59
f 36//60 33//60 34//60
f 30//61 33//61 29//61
f 31//62 36//62 32//62
f 29//63 35//64 31//65
f 14//66 38//66 39//66
f 15//67 37//67 16//67
f 15//68 39//68 40//68
f 16//69 42//70 13//71
f 44//72 45//72 41//72
f 16//73 44//74 41//75
f 13//76 43//77 38//78
f 37//79 43//80 44//81
f 46//82 48//82 47//83
f 42//84 45//84 46//84
f 43//85 48//86 44//85
f 43//87 46//87 47//87
f 25//59 52//88 51//59
f 26//57 50//57 52//57
f 25//89 49//89 27//89
f 27//45 50//45 28//45
f 54//90 60//91 56//92
f 31//93 55//93 53//93
f 51//94 55//94 49//94
f 29//95 53//95 54//95
f 60//96 57//96 59//96
f 54//97 57//98 58//99
f 56//100 59//101 55//102
f 53//103 59//104 57//105
f 9//106 61//107 62//108
f 23//109 62//110 63//111
f 22//112 61//113 12//114
f 23//115 64//116 22//117
f 65//118 70//119 69//120
f 97//121 66//122 65//123
f 100//124 68//125 67//126
f 99//127 67//128 66//129
f 72//130 75//131 71//132
f 68//133 71//134 67//135
f 66//136 71//137 70//138
f 65//139 72//139 68//139
f 76//140 74//141 75//142
f 70//143 75//143 74//143
f 69//144 76//144 72//144
f 69//145 74//146 73//147
f 94//148 81//149 82//150
f 61//151 79//152 62//153
f 62//154 80//155 10//156
f 61//157 77//158 78//159
f 83//160 85//161 81//162
f 95//163 83//164 96//165
f 96//166 81//167 93//168
f 95//169 82//170 84//171
f 85//172 88//173 86//174
f 84//175 86//176 88//177
f 82//178 85//179 86//180
f 84//181 87//182 83//183
f 21//184 90//185 91//186
f 64//187 89//188 61//189
f 64//190 91//190 92//190
f 61//191 90//192 11//193
f 77//194 94//195 95//196
f 80//197 93//198 10//199
f 77//200 96//201 80//202
f 11//203 93//204 94//205
f 9//206 100//207 99//208
f 22//209 100//210 23//211
f 12//212 99//213 97//214
f 12//215 98//216 22//217
f 2//1 4//218 3//2
f 4//4 8//219 7//5
f 8//7 6//220 5//8
f 6//10 2//221 1//11
f 7//13 5//13 1//13
f 89//14 26//14 25//14
f 78//15 77//15 15//15
f 24//16 63//222 62//17
f 97//19 65//223 68//20
f 24//22 10//224 11//23
f 38//25 37//25 20//25
f 79//26 13//26 14//26
f 79//27 78//225 16//28
f 80//30 14//226 15//31
f 18//33 17//33 20//33
f 39//34 18//34 19//34
f 40//35 19//35 20//35
f 38//36 17//36 18//36
f 4//37 24//227 21//38
f 2//40 6//228 64//41
f 4//43 2//43 63//43
f 8//44 21//44 64//44
f 50//45 49//45 31//45
f 92//46 91//46 27//46
f 92//47 28//229 26//48
f 91//50 90//230 25//51
f 30//53 32//58 36//54
f 29//56 54//56 56//56
f 52//57 50//57 32//58
f 51//59 52//88 30//59
f 36//60 35//60 33//60
f 30//61 34//61 33//61
f 31//62 35//62 36//62
f 29//63 33//231 35//64
f 14//66 13//66 38//66
f 15//67 40//67 37//67
f 15//68 14//68 39//68
f 16//69 41//232 42//70
f 44//72 48//72 45//72
f 16//73 37//233 44//74
f 13//76 42//234 43//77
f 37//79 38//235 43//80
f 46//82 45//82 48//82
f 42//84 41//84 45//84
f 43//85 47//86 48//86
f 43//87 42//87 46//87
f 25//59 26//59 52//88
f 26//57 28//57 50//57
f 25//89 51//89 49//89
f 27//45 49//45 50//45
f 54//90 58//236 60//91
f 31//93 49//93 55//93
f 51//94 56//94 55//94
f 29//95 31//95 53//95
f 60//96 58//96 57//96
f 54//97 53//237 57//98
f 56//100 60//238 59//101
f 53//103 55//239 59//104
f 9//106 12//240 61//107
f 23//109 9//241 62//110
f 22//112 64//242 61//113
f 23//115 63//243 64//116
f 65//118 66//244 70//119
f 97//121 99//245 66//122
f 100//124 98//246 68//125
f 99//127 100//247 67//128
f 72//130 76//248 75//131
f 68//133 72//249 71//134
f 66//136 67//250 71//137
f 65//139 69//139 72//139
f 76//140 73//251 74//141
f 70//143 71//143 75//143
f 69//144 73//144 76//144
f 69//145 70//252 74//146
f 94//148 93//253 81//149
f 61//151 78//254 79//152
f 62//154 79//255 80//155
f 61//157 11//256 77//158
f 83//160 87//257 85//161
f 95//163 84//258 83//164
f 96//166 83//259 81//167
f 95//169 94//260 82//170
f 85//172 87//261 88//173
f 84//175 82//262 86//176
f 82//178 81//263 85//179
f 84//181 88//264 87//182
f 21//184 11//265 90//185
f 64//187 92//266 89//188
f 64//190 21//190 91//190
f 61//191 89//267 90//192
f 77//194 11//268 94//195
f 80//197 96//269 93//198
f 77//200 95//270 96//201
f 11//203 10//271 93//204
f 9//206 23//272 100//207
f 22//209 98//273 100//210
f 12//212 9//274 99//213
f 12//215 97//275 98//216
