# Blender v2.80 (sub 35) OBJ File: ''
# www.blender.org
o Cube
v 1.000000 1.000000 -1.000000
v 1.000000 -1.000000 -1.000000
v 1.000000 1.000000 1.000000
v 1.000000 -1.000000 1.000000
v -1.000000 1.000000 -1.000000
v -1.000000 -1.000000 -1.000000
v -1.000000 1.000000 1.000000
v -1.000000 -1.000000 1.000000
v -0.847373 -0.287478 0.253632
v -0.384576 -0.442651 -0.535330
v -0.456572 -0.452695 -0.483817
v -1.000000 -1.000000 0.000000
v 0.000000 -1.000000 -1.000000
v 1.000000 0.000000 -1.000000
v -1.000000 0.000000 1.000000
v 1.000000 0.000000 1.000000
v -1.000000 0.000000 -1.000000
v 0.000000 1.000000 1.000000
v 1.000000 1.000000 0.000000
v 0.000000 -1.000000 1.000000
v -1.000000 1.000000 0.000000
v 0.000000 1.000000 -1.000000
v 1.000000 -1.000000 0.000000
v 0.000000 0.000000 -1.000000
v 1.000000 0.000000 0.000000
v 0.000000 -1.000000 0.000000
v -1.000000 0.000000 0.000000
v 0.000000 0.000000 1.000000
v 0.000000 1.000000 0.000000
v -1.000000 -1.000000 0.500000
v -0.500000 -1.000000 -1.000000
v 1.000000 -0.500000 -1.000000
v -1.000000 0.500000 1.000000
v 1.000000 -0.500000 1.000000
v -1.000000 -0.500000 -1.000000
v -0.500000 1.000000 1.000000
v 1.000000 1.000000 0.500000
v 0.500000 -1.000000 1.000000
v -1.000000 1.000000 -0.500000
v 0.500000 1.000000 -1.000000
v 1.000000 -1.000000 -0.500000
v -1.000000 -1.000000 -0.500000
v 0.500000 -1.000000 -1.000000
v 1.000000 0.500000 -1.000000
v -1.000000 -0.500000 1.000000
v 1.000000 0.500000 1.000000
v -1.000000 0.500000 -1.000000
v 0.500000 1.000000 1.000000
v 1.000000 1.000000 -0.500000
v -0.500000 -1.000000 1.000000
v -1.000000 1.000000 0.500000
v -0.500000 1.000000 -1.000000
v 1.000000 -1.000000 0.500000
v 0.500000 0.000000 -1.000000
v -0.500000 0.000000 -1.000000
v 0.000000 -0.500000 -1.000000
v 0.000000 0.500000 -1.000000
v 1.000000 0.000000 0.500000
v 1.000000 0.000000 -0.500000
v 1.000000 -0.500000 0.000000
v 1.000000 0.500000 0.000000
v 0.000000 -1.000000 0.500000
v 0.000000 -1.000000 -0.500000
v -0.500000 -1.000000 0.000000
v 0.500000 -1.000000 0.000000
v -1.000000 0.000000 -0.500000
v -1.000000 0.000000 0.500000
v -1.000000 -0.500000 0.000000
v -1.000000 0.500000 0.000000
v -0.500000 0.000000 1.000000
v 0.500000 0.000000 1.000000
v 0.000000 -0.500000 1.000000
v 0.000000 0.500000 1.000000
v 0.000000 1.000000 0.500000
v 0.000000 1.000000 -0.500000
v 0.500000 1.000000 0.000000
v -0.500000 1.000000 0.000000
v -0.500000 1.000000 -0.500000
v 0.500000 1.000000 -0.500000
v 0.500000 1.000000 0.500000
v 0.500000 0.500000 1.000000
v 0.500000 -0.500000 1.000000
v -0.500000 -0.500000 1.000000
v -1.000000 0.500000 0.500000
v -1.000000 -0.500000 0.500000
v -1.000000 -0.500000 -0.500000
v 0.500000 -1.000000 -0.500000
v -0.500000 -1.000000 -0.500000
v -0.500000 -1.000000 0.500000
v 1.000000 0.500000 -0.500000
v 1.000000 -0.500000 -0.500000
v 1.000000 -0.500000 0.500000
v -0.500000 0.500000 -1.000000
v -0.500000 -0.500000 -1.000000
v 0.500000 -0.500000 -1.000000
v 0.500000 0.500000 -1.000000
v 1.000000 0.500000 0.500000
v 0.500000 -1.000000 0.500000
v -1.000000 0.500000 -0.500000
v -0.500000 0.500000 1.000000
v -0.500000 1.000000 0.500000
v 0.000000 1.178577 0.000000
v 0.000000 1.178577 -0.500000
v 0.500000 1.178577 0.000000
v 0.500000 1.178577 -0.500000
v 0.000000 1.096198 0.000000
v 0.000000 1.096198 -0.500000
v -0.500000 1.096198 0.000000
v -0.500000 1.096198 -0.500000
v 0.000000 1.057411 -1.000000
v 0.500000 1.057411 -1.000000
v 0.000000 1.057411 -0.500000
v 0.500000 1.057411 -0.500000
v -1.000000 1.155403 -1.000000
v -1.000000 1.155403 -0.500000
v -0.500000 1.155403 -1.000000
v -0.500000 1.155403 -0.500000
v 0.000000 1.208776 0.000000
v 0.000000 1.208776 0.500000
v -0.500000 1.208776 0.000000
v -0.500000 1.208776 0.500000
v -1.000000 1.132517 0.000000
v -1.000000 1.132517 0.500000
v -0.500000 1.132517 0.000000
v -0.500000 1.132517 0.500000
v 0.000000 1.269930 1.000000
v 0.500000 1.269930 1.000000
v 0.000000 1.269930 0.500000
v 0.500000 1.269930 0.500000
v -1.000000 1.232782 1.000000
v -0.500000 1.232782 1.000000
v -1.000000 1.232782 0.500000
v -0.500000 1.232782 0.500000
v 1.000000 1.232056 0.000000
v 1.000000 1.232056 0.500000
v 0.500000 1.232056 0.000000
v 0.500000 1.232056 0.500000
v 1.000000 1.266527 -1.000000
v 0.500000 1.266527 -1.000000
v 1.000000 1.266527 -0.500000
v 0.500000 1.266527 -0.500000
vn -1.0000 0.0000 0.0000
vn 0.0000 0.0000 1.0000
vn 0.0000 -1.0000 0.0000
vn 1.0000 0.0000 0.0000
vn 0.0000 0.0000 -1.0000
vn 0.0000 1.0000 0.0000
s off
f 7//1 132//1 51//1
f 36//2 33//2 100//2
f 39//1 47//1 99//1
f 53//3 38//3 98//3
f 37//4 46//4 97//4
f 40//5 44//5 96//5
f 54//5 32//5 95//5
f 55//5 56//5 94//5
f 52//5 57//5 93//5
f 58//4 34//4 92//4
f 59//4 60//4 91//4
f 49//4 61//4 90//4
f 62//3 50//3 89//3
f 63//3 64//3 88//3
f 41//3 65//3 87//3
f 66//1 35//1 86//1
f 67//1 68//1 85//1
f 51//1 69//1 84//1
f 70//2 45//2 83//2
f 71//2 72//2 82//2
f 48//2 73//2 81//2
f 48//2 126//2 18//2
f 29//1 103//1 75//1
f 39//6 77//6 78//6
f 29//2 108//2 77//2
f 52//6 75//6 22//6
f 39//1 114//1 5//1
f 79//6 19//6 49//6
f 49//2 141//2 79//2
f 75//1 110//1 22//1
f 80//6 3//6 37//6
f 37//2 137//2 80//2
f 29//6 80//6 76//6
f 81//2 28//2 71//2
f 46//2 71//2 16//2
f 3//2 81//2 46//2
f 82//2 20//2 38//2
f 34//2 38//2 4//2
f 16//2 82//2 34//2
f 83//2 8//2 50//2
f 72//2 50//2 20//2
f 28//2 83//2 72//2
f 84//1 27//1 67//1
f 33//1 67//1 15//1
f 7//1 84//1 33//1
f 85//1 12//1 30//1
f 45//1 30//1 8//1
f 15//1 85//1 45//1
f 86//1 6//1 42//1
f 68//1 42//1 12//1
f 27//1 86//1 68//1
f 87//3 26//3 63//3
f 43//3 63//3 13//3
f 2//3 87//3 43//3
f 88//3 12//3 42//3
f 31//3 42//3 6//3
f 13//3 88//3 31//3
f 89//3 8//3 30//3
f 64//3 30//3 12//3
f 26//3 89//3 64//3
f 90//4 25//4 59//4
f 44//4 59//4 14//4
f 1//4 90//4 44//4
f 91//4 23//4 41//4
f 32//4 41//4 2//4
f 14//4 91//4 32//4
f 92//4 4//4 53//4
f 60//4 53//4 23//4
f 25//4 92//4 60//4
f 93//5 24//5 55//5
f 47//5 55//5 17//5
f 5//5 93//5 47//5
f 94//5 13//5 31//5
f 35//5 31//5 6//5
f 17//5 94//5 35//5
f 95//5 2//5 43//5
f 56//5 43//5 13//5
f 24//5 95//5 56//5
f 96//5 14//5 54//5
f 57//5 54//5 24//5
f 22//5 96//5 57//5
f 97//4 16//4 58//4
f 61//4 58//4 25//4
f 19//4 97//4 61//4
f 98//3 20//3 62//3
f 65//3 62//3 26//3
f 23//3 98//3 65//3
f 99//1 17//1 66//1
f 69//1 66//1 27//1
f 21//1 99//1 69//1
f 100//2 15//2 70//2
f 73//2 70//2 28//2
f 18//2 100//2 73//2
f 101//6 18//6 74//6
f 77//5 118//5 29//5
f 21//5 124//5 77//5
f 103//6 104//6 105//6
f 79//4 104//4 76//4
f 76//2 102//2 29//2
f 75//5 105//5 79//5
f 109//6 106//6 107//6
f 75//4 106//4 29//4
f 78//5 107//5 75//5
f 77//1 109//1 78//1
f 110//6 113//6 111//6
f 22//5 111//5 40//5
f 79//2 112//2 75//2
f 40//4 113//4 79//4
f 114//6 117//6 116//6
f 52//4 117//4 78//4
f 5//5 116//5 52//5
f 78//2 115//2 39//2
f 120//6 119//6 118//6
f 74//2 121//2 101//2
f 29//4 119//4 74//4
f 101//1 120//1 77//1
f 122//6 125//6 124//6
f 51//1 122//1 21//1
f 101//2 123//2 51//2
f 77//4 125//4 101//4
f 128//6 127//6 129//6
f 80//4 127//4 48//4
f 74//5 129//5 80//5
f 18//1 128//1 74//1
f 132//6 131//6 133//6
f 101//4 131//4 36//4
f 36//2 130//2 7//2
f 51//5 133//5 101//5
f 136//6 135//6 134//6
f 80//1 136//1 76//1
f 76//5 134//5 19//5
f 19//4 135//4 37//4
f 139//6 140//6 138//6
f 1//4 140//4 49//4
f 40//5 138//5 1//5
f 79//1 139//1 40//1
f 7//1 130//1 132//1
f 36//2 7//2 33//2
f 39//1 5//1 47//1
f 53//3 4//3 38//3
f 37//4 3//4 46//4
f 40//5 1//5 44//5
f 54//5 14//5 32//5
f 55//5 24//5 56//5
f 52//5 22//5 57//5
f 58//4 16//4 34//4
f 59//4 25//4 60//4
f 49//4 19//4 61//4
f 62//3 20//3 50//3
f 63//3 26//3 64//3
f 41//3 23//3 65//3
f 66//1 17//1 35//1
f 67//1 27//1 68//1
f 51//1 21//1 69//1
f 70//2 15//2 45//2
f 71//2 28//2 72//2
f 48//2 18//2 73//2
f 48//2 127//2 126//2
f 29//1 102//1 103//1
f 39//6 21//6 77//6
f 29//2 106//2 108//2
f 52//6 78//6 75//6
f 39//1 115//1 114//1
f 79//6 76//6 19//6
f 49//2 140//2 141//2
f 75//1 112//1 110//1
f 80//6 48//6 3//6
f 37//2 135//2 137//2
f 29//6 74//6 80//6
f 81//2 73//2 28//2
f 46//2 81//2 71//2
f 3//2 48//2 81//2
f 82//2 72//2 20//2
f 34//2 82//2 38//2
f 16//2 71//2 82//2
f 83//2 45//2 8//2
f 72//2 83//2 50//2
f 28//2 70//2 83//2
f 84//1 69//1 27//1
f 33//1 84//1 67//1
f 7//1 51//1 84//1
f 85//1 68//1 12//1
f 45//1 85//1 30//1
f 15//1 67//1 85//1
f 86//1 35//1 6//1
f 68//1 86//1 42//1
f 27//1 66//1 86//1
f 87//3 65//3 26//3
f 43//3 87//3 63//3
f 2//3 41//3 87//3
f 88//3 64//3 12//3
f 31//3 88//3 42//3
f 13//3 63//3 88//3
f 89//3 50//3 8//3
f 64//3 89//3 30//3
f 26//3 62//3 89//3
f 90//4 61//4 25//4
f 44//4 90//4 59//4
f 1//4 49//4 90//4
f 91//4 60//4 23//4
f 32//4 91//4 41//4
f 14//4 59//4 91//4
f 92//4 34//4 4//4
f 60//4 92//4 53//4
f 25//4 58//4 92//4
f 93//5 57//5 24//5
f 47//5 93//5 55//5
f 5//5 52//5 93//5
f 94//5 56//5 13//5
f 35//5 94//5 31//5
f 17//5 55//5 94//5
f 95//5 32//5 2//5
f 56//5 95//5 43//5
f 24//5 54//5 95//5
f 96//5 44//5 14//5
f 57//5 96//5 54//5
f 22//5 40//5 96//5
f 97//4 46//4 16//4
f 61//4 97//4 58//4
f 19//4 37//4 97//4
f 98//3 38//3 20//3
f 65//3 98//3 62//3
f 23//3 53//3 98//3
f 99//1 47//1 17//1
f 69//1 99//1 66//1
f 21//1 39//1 99//1
f 100//2 33//2 15//2
f 73//2 100//2 70//2
f 18//2 36//2 100//2
f 101//6 36//6 18//6
f 77//5 120//5 118//5
f 21//5 122//5 124//5
f 103//6 102//6 104//6
f 79//4 105//4 104//4
f 76//2 104//2 102//2
f 75//5 103//5 105//5
f 109//6 108//6 106//6
f 75//4 107//4 106//4
f 78//5 109//5 107//5
f 77//1 108//1 109//1
f 110//6 112//6 113//6
f 22//5 110//5 111//5
f 79//2 113//2 112//2
f 40//4 111//4 113//4
f 114//6 115//6 117//6
f 52//4 116//4 117//4
f 5//5 114//5 116//5
f 78//2 117//2 115//2
f 120//6 121//6 119//6
f 74//2 119//2 121//2
f 29//4 118//4 119//4
f 101//1 121//1 120//1
f 122//6 123//6 125//6
f 51//1 123//1 122//1
f 101//2 125//2 123//2
f 77//4 124//4 125//4
f 128//6 126//6 127//6
f 80//4 129//4 127//4
f 74//5 128//5 129//5
f 18//1 126//1 128//1
f 132//6 130//6 131//6
f 101//4 133//4 131//4
f 36//2 131//2 130//2
f 51//5 132//5 133//5
f 136//6 137//6 135//6
f 80//1 137//1 136//1
f 76//5 136//5 134//5
f 19//4 134//4 135//4
f 139//6 141//6 140//6
f 1//4 138//4 140//4
f 40//5 139//5 138//5
f 79//1 141//1 139//1
