# Blender v2.79 (sub 0) OBJ File: ''
# www.blender.org
o Cube
v 1.000000 -1.000000 -1.000000
v 1.000000 -1.000000 1.000000
v -1.000000 -1.000000 1.000000
v -1.000000 -1.000000 -1.000000
v 1.000000 1.000000 -0.999999
v 0.999999 1.000000 1.000001
v -1.000000 1.000000 1.000000
v -1.000000 1.000000 -1.000000
v 1.000000 -1.000000 0.000000
v 0.000000 -1.000000 -1.000000
v 1.000000 0.000000 -1.000000
v 0.000000 -1.000000 1.000000
v 1.000000 0.000000 1.000000
v -1.000000 -1.000000 -0.000000
v -1.000000 0.000000 1.000000
v -1.000000 0.000000 -1.000000
v 1.000000 1.000000 0.000001
v 0.000000 1.000000 -1.000000
v -0.000001 1.000000 1.000000
v -1.000000 1.000000 -0.000000
v 0.000000 0.000000 -1.000000
v -1.000000 0.000000 -0.000000
v -0.000000 0.000000 1.000000
v 1.000000 0.000000 0.000000
v -0.000000 1.000000 0.000000
v 0.000000 -1.000000 -0.000000
v 1.000000 -1.000000 0.500000
v -0.500000 -1.000000 -1.000000
v 1.000000 0.500000 -1.000000
v -0.500000 -1.000000 1.000000
v 1.000000 0.500000 1.000000
v -1.000000 -1.000000 -0.500000
v -1.000000 0.500000 1.000000
v -1.000000 0.500000 -1.000000
v 1.000000 1.000000 0.500001
v -0.500000 1.000000 -1.000000
v -0.500000 1.000000 1.000000
v -1.000000 1.000000 -0.500000
v 1.000000 -1.000000 -0.500000
v 0.500000 -1.000000 -1.000000
v 1.000000 -0.500000 -1.000000
v 0.500000 -1.000000 1.000000
v 1.000000 -0.500000 1.000000
v -1.000000 -1.000000 0.500000
v -1.000000 -0.500000 1.000000
v -1.000000 -0.500000 -1.000000
v 1.000000 1.000000 -0.499999
v 0.500000 1.000000 -1.000000
v 0.499999 1.000000 1.000000
v -1.000000 1.000000 0.500000
v -0.500000 0.000000 -1.000000
v 0.500000 0.000000 -1.000000
v 0.000000 0.500000 -1.000000
v 0.000000 -0.500000 -1.000000
v -1.000000 0.000000 -0.500000
v -1.000000 0.000000 0.500000
v -1.000000 -0.500000 -0.000000
v -1.000000 0.500000 -0.000000
v -0.500000 0.000000 1.000000
v 0.500000 0.000000 1.000000
v -0.000000 -0.500000 1.000000
v -0.000000 0.500000 1.000000
v 1.000000 0.000000 0.500000
v 1.000000 0.000000 -0.500000
v 1.000000 -0.500000 0.000000
v 1.000000 0.500000 0.000000
v -0.000000 1.000000 0.500000
v 0.000000 1.000000 -0.500000
v 0.500000 1.000000 0.000000
v -0.500000 1.000000 0.000000
v -0.500000 -1.000000 -0.000000
v 0.500000 -1.000000 -0.000000
v 0.000000 -1.000000 -0.500000
v 0.000000 -1.000000 0.500000
v 0.500000 -1.000000 0.500000
v 0.500000 -1.000000 -0.500000
v -0.500000 -1.000000 -0.500000
v -0.500000 1.000000 -0.500000
v 0.500000 1.000000 -0.500000
v 0.500000 1.000000 0.500000
v 1.000000 0.500000 -0.500000
v 1.000000 -0.500000 -0.500000
v 1.000000 -0.500000 0.500000
v 0.500000 0.500000 1.000000
v 0.500000 -0.500000 1.000000
v -0.500000 -0.500000 1.000000
v -1.000000 0.500000 0.500000
v -1.000000 -0.500000 0.500000
v -1.000000 -0.500000 -0.500000
v 0.500000 -0.500000 -1.000000
v 0.500000 0.500000 -1.000000
v -0.500000 0.500000 -1.000000
v -0.500000 -0.500000 -1.000000
v -1.000000 0.500000 -0.500000
v -0.500000 0.500000 1.000000
v 1.000000 0.500000 0.500000
v -0.500000 1.000000 0.500000
v -0.500000 -1.000000 0.500000
v -0.500000 1.036418 0.000000
v -0.000000 1.036418 0.000000
v -0.000000 1.036418 0.500000
v -0.500000 1.036418 0.500000
v 0.000000 0.950955 -0.500000
v -0.000000 0.950955 0.000000
v -0.500000 0.950955 0.000000
v -0.500000 0.950955 -0.500000
v 0.000000 1.013392 -0.500000
v -0.000000 1.013392 0.000000
v 0.500000 1.013392 0.000000
v 0.500000 1.013392 -0.500000
v -0.000000 0.966188 0.000000
v -0.000000 0.966188 0.500000
v 0.500000 0.966188 0.000000
v 0.500000 0.966188 0.500000
v 1.000000 1.073616 -0.499999
v 1.000000 1.073616 0.000001
v 0.500000 1.073616 0.000000
v 0.500000 1.073616 -0.500000
v 0.500000 0.933630 0.000000
v 1.000000 0.933630 0.000001
v 1.000000 0.933630 0.500001
v 0.500000 0.933630 0.500000
v 1.000000 1.034150 0.500001
v 0.999999 1.034150 1.000001
v 0.499999 1.034150 1.000000
v 0.500000 1.034150 0.500000
v -0.000000 0.962911 0.500000
v -0.000001 0.962911 1.000000
v -0.500000 0.962911 1.000000
v -0.500000 0.962911 0.500000
v 0.499999 1.020473 1.000000
v -0.000001 1.020473 1.000000
v -0.000000 1.020473 0.500000
v 0.500000 1.020473 0.500000
v -1.000000 0.977262 0.500000
v -1.000000 0.977262 -0.000000
v -0.500000 0.977262 0.000000
v -0.500000 0.977262 0.500000
v -0.500000 1.041223 -1.000000
v -1.000000 1.041223 -1.000000
v -1.000000 1.041223 -0.500000
v -0.500000 1.041223 -0.500000
v 0.500000 0.979699 -1.000000
v 0.000000 0.979699 -1.000000
v 0.000000 0.979699 -0.500000
v 0.500000 0.979699 -0.500000
v 0.500000 0.000000 -1.041212
v 0.000000 0.000000 -1.041212
v 0.000000 0.500000 -1.041212
v 0.500000 0.500000 -1.041211
v 0.500000 1.000000 -1.067516
v 0.000000 1.000000 -1.067516
v 0.000000 0.500000 -1.067517
v 0.500000 0.500000 -1.067516
v 0.000000 0.500000 -1.055306
v 0.000000 1.000000 -1.055306
v -0.500000 1.000000 -1.055306
v -0.500000 0.500000 -1.055306
v 0.000000 -0.000000 -1.013874
v -0.500000 -0.000000 -1.013874
v 0.000000 0.500000 -1.013874
v -0.500000 0.500000 -1.013874
v 0.000000 -0.500000 -1.034098
v 0.000000 0.000000 -1.034098
v -0.500000 0.000000 -1.034098
v -0.500000 -0.500000 -1.034098
v 0.500000 0.000000 -0.977464
v 0.000000 0.000000 -0.977464
v 0.000000 -0.500000 -0.977464
v 0.500000 -0.500000 -0.977464
v 0.500000 -1.000000 -1.016919
v 0.000000 -1.000000 -1.016920
v 0.000000 -0.500000 -1.016919
v 0.500000 -0.500000 -1.016919
v 0.000000 -1.000000 -0.967676
v -0.500000 -1.000000 -0.967676
v 0.000000 -0.500000 -0.967675
v -0.500000 -0.500000 -0.967676
v -1.089205 1.000000 -0.000000
v -1.089204 1.000000 -0.500000
v -1.089204 0.500000 -0.000000
v -1.089204 0.500000 -0.500000
v -1.052285 1.000000 0.500000
v -1.052285 1.000000 -0.000000
v -1.052285 0.500000 -0.000000
v -1.052285 0.500000 0.500000
v -1.008282 0.500000 -0.000000
v -1.008282 0.000000 -0.000000
v -1.008282 0.000000 -0.500000
v -1.008282 0.500000 -0.500000
v -1.065171 0.000000 0.500000
v -1.065171 0.000000 -0.000000
v -1.065171 0.500000 -0.000000
v -1.065171 0.500000 0.500000
v -1.029825 0.000000 -0.000000
v -1.029825 0.000000 -0.500000
v -1.029825 -0.500000 -0.000000
v -1.029825 -0.500000 -0.500000
v -1.084435 -0.000000 0.500000
v -1.084435 -0.000000 -0.000000
v -1.084435 -0.500000 -0.000000
v -1.084435 -0.500000 0.500000
v -1.043064 -0.500000 -0.000000
v -1.043064 -1.000000 -0.000000
v -1.043064 -1.000000 -0.500000
v -1.043064 -0.500000 -0.500000
v -1.057108 -0.500000 -0.000000
v -1.057108 -1.000000 -0.000000
v -1.057108 -1.000000 -0.500000
v -1.057108 -0.500000 -0.500000
v -1.027763 -1.000000 0.500000
v -1.027763 -1.000000 -0.000000
v -1.027763 -0.500000 -0.000000
v -1.027763 -0.500000 0.500000
v -0.000000 1.083193 0.500000
v -0.000001 1.083193 1.000000
v -0.500000 1.083193 1.000000
v -0.500000 1.083193 0.500000
v -0.000001 1.000000 0.905791
v -0.500000 1.000000 0.905791
v -0.000000 0.500000 0.905791
v -0.500000 0.500000 0.905791
v 0.499999 1.000000 0.941786
v -0.000001 1.000000 0.941786
v -0.000000 0.500000 0.941785
v 0.500000 0.500000 0.941786
v -0.000000 0.500000 1.053148
v -0.000000 0.000000 1.053148
v -0.500000 0.000000 1.053148
v -0.500000 0.500000 1.053148
v 0.500000 -0.000000 1.097848
v -0.000000 -0.000000 1.097848
v -0.000000 0.500000 1.097848
v 0.500000 0.500000 1.097848
v -0.000000 0.000000 1.040065
v -0.500000 0.000000 1.040065
v -0.000000 -0.500000 1.040065
v -0.500000 -0.500000 1.040065
v 0.500000 -1.000000 1.075267
v -0.000000 -1.000000 1.075267
v -0.000000 -0.500000 1.075267
v 0.500000 -0.500000 1.075267
v 1.078515 1.000000 0.000001
v 1.078514 1.000000 0.500001
v 1.078515 0.500000 0.000000
v 1.078514 0.500000 0.500000
v 1.176246 1.000000 -0.499999
v 1.176246 1.000000 0.000001
v 1.176246 0.500000 0.000001
v 1.176246 0.500000 -0.499999
v 1.043153 0.500000 0.000000
v 1.043153 -0.000000 0.000000
v 1.043153 -0.000000 0.500000
v 1.043153 0.500000 0.500000
v 1.069456 0.000000 -0.500000
v 1.069455 0.000000 0.000000
v 1.069455 0.500000 0.000000
v 1.069456 0.500000 -0.500000
v 1.053567 0.000000 0.000000
v 1.053567 0.000000 0.500000
v 1.053567 -0.500000 0.000000
v 1.053567 -0.500000 0.500000
v 1.078842 0.000000 -0.500000
v 1.078842 0.000000 0.000000
v 1.078842 -0.500000 0.000000
v 1.078842 -0.500000 -0.500000
v 1.103812 -0.500000 0.000000
v 1.103812 -1.000000 0.000000
v 1.103812 -1.000000 0.500000
v 1.103812 -0.500000 0.500000
v -0.000001 1.000000 1.031512
v -0.500000 1.000000 1.031512
v -0.000000 0.500000 1.031512
v -0.500000 0.500000 1.031512
v -0.000000 1.051414 0.000000
v -0.000000 1.051414 0.500000
v 0.500000 1.051414 0.000000
v 0.500000 1.051414 0.500000
v 0.500000 1.015799 0.000000
v 1.000000 1.015799 0.000001
v 1.000000 1.015799 0.500001
v 0.500000 1.015799 0.500000
vn 0.0000 -1.0000 0.0000
vn 0.0000 1.0000 0.0000
vn 1.0000 0.0000 0.0000
vn -0.0000 0.0000 1.0000
vn -1.0000 -0.0000 -0.0000
vn 0.0000 0.0000 -1.0000
s off
f 30//1 44//1 98//1
f 50//2 37//2 97//2
f 35//3 31//3 96//3
f 37//4 33//4 95//4
f 94//5 8//5 34//5
f 28//6 46//6 93//6
f 51//6 34//6 92//6
f 52//3 150//3 91//3
f 10//1 171//1 40//1
f 55//5 46//5 89//5
f 22//2 199//2 56//2
f 50//4 186//4 87//4
f 59//4 45//4 86//4
f 60//4 61//4 85//4
f 49//5 226//5 84//5
f 63//3 43//3 83//3
f 82//1 265//1 65//1
f 66//4 248//4 17//4
f 49//4 132//4 19//4
f 69//4 108//4 25//4
f 78//2 20//2 70//2
f 71//1 32//1 77//1
f 72//1 73//1 76//1
f 75//1 12//1 74//1
f 72//1 74//1 26//1
f 9//1 75//1 72//1
f 27//1 42//1 75//1
f 40//1 73//1 10//1
f 39//1 40//1 1//1
f 39//1 72//1 76//1
f 77//1 4//1 28//1
f 10//1 77//1 28//1
f 73//1 71//1 77//1
f 78//4 103//4 68//4
f 36//2 68//2 18//2
f 38//5 140//5 8//5
f 79//6 115//6 47//6
f 48//2 47//2 5//2
f 79//6 145//6 68//6
f 6//4 125//4 49//4
f 69//4 120//4 17//4
f 25//4 113//4 69//4
f 81//6 255//6 64//6
f 29//3 64//3 11//3
f 5//3 81//3 29//3
f 82//3 9//3 39//3
f 41//3 39//3 1//3
f 11//3 82//3 41//3
f 83//3 2//3 27//3
f 83//2 267//2 65//2
f 83//4 260//4 63//4
f 23//5 233//5 62//5
f 31//4 60//4 13//4
f 6//4 84//4 31//4
f 12//5 241//5 61//5
f 43//4 42//4 2//4
f 13//4 85//4 43//4
f 86//4 3//4 30//4
f 61//4 30//4 12//4
f 59//2 235//2 23//2
f 22//6 193//6 58//6
f 33//5 56//5 15//5
f 7//5 87//5 33//5
f 88//4 211//4 44//4
f 45//5 44//5 3//5
f 15//5 88//5 45//5
f 89//5 4//5 32//5
f 32//6 206//6 89//6
f 22//4 197//4 57//4
f 90//5 167//5 52//5
f 41//6 52//6 11//6
f 1//6 90//6 41//6
f 18//5 153//5 53//5
f 29//6 48//6 5//6
f 11//6 91//6 29//6
f 92//6 8//6 36//6
f 53//3 156//3 18//3
f 92//5 160//5 51//5
f 51//6 46//6 16//6
f 93//1 163//1 54//1
f 93//1 177//1 178//1
f 94//5 16//5 55//5
f 58//4 188//4 22//4
f 38//2 179//2 20//2
f 95//4 15//4 59//4
f 23//1 229//1 59//1
f 37//1 219//1 19//1
f 96//3 13//3 63//3
f 66//6 252//6 24//6
f 35//2 243//2 17//2
f 67//5 128//5 19//5
f 25//3 101//3 67//3
f 97//6 135//6 50//6
f 98//1 14//1 71//1
f 74//1 71//1 26//1
f 74//1 30//1 98//1
f 99//2 101//2 100//2
f 97//5 99//5 70//5
f 70//6 100//6 25//6
f 67//4 102//4 97//4
f 106//2 104//2 103//2
f 70//3 106//3 78//3
f 25//6 105//6 70//6
f 68//5 104//5 25//5
f 107//2 109//2 110//2
f 79//3 109//3 69//3
f 68//6 110//6 79//6
f 25//5 107//5 68//5
f 113//3 278//3 114//3
f 67//3 111//3 25//3
f 80//6 112//6 67//6
f 69//5 114//5 80//5
f 118//2 116//2 115//2
f 69//5 118//5 79//5
f 47//3 116//3 17//3
f 17//4 117//4 69//4
f 121//4 282//4 122//4
f 80//3 119//3 69//3
f 17//5 121//5 35//5
f 35//6 122//6 80//6
f 126//2 124//2 123//2
f 35//3 124//3 6//3
f 80//6 123//6 35//6
f 49//5 126//5 80//5
f 130//6 215//6 127//6
f 19//6 129//6 37//6
f 97//4 127//4 67//4
f 37//3 130//3 97//3
f 134//2 132//2 131//2
f 67//6 134//6 80//6
f 19//5 133//5 67//5
f 80//3 131//3 49//3
f 136//2 138//2 137//2
f 70//5 138//5 97//5
f 20//4 137//4 70//4
f 50//3 136//3 20//3
f 139//2 141//2 142//2
f 8//6 139//6 36//6
f 78//4 141//4 38//4
f 36//3 142//3 78//3
f 144//2 146//2 143//2
f 48//5 146//5 79//5
f 68//3 144//3 18//3
f 18//4 143//4 48//4
f 147//6 149//6 150//6
f 21//1 147//1 52//1
f 53//5 148//5 21//5
f 91//2 149//2 53//2
f 154//6 152//6 151//6
f 48//2 152//2 18//2
f 91//3 151//3 48//3
f 91//1 153//1 154//1
f 155//6 157//6 156//6
f 18//2 157//2 36//2
f 92//1 155//1 53//1
f 36//5 158//5 92//5
f 159//6 162//6 161//6
f 53//2 162//2 92//2
f 21//3 161//3 53//3
f 51//1 159//1 21//1
f 164//6 166//6 165//6
f 54//3 164//3 21//3
f 51//5 166//5 93//5
f 21//2 165//2 51//2
f 170//6 168//6 167//6
f 54//2 170//2 90//2
f 21//3 169//3 54//3
f 52//1 168//1 21//1
f 171//6 173//6 174//6
f 90//2 173//2 54//2
f 54//5 172//5 10//5
f 40//3 174//3 90//3
f 175//6 178//6 177//6
f 10//5 177//5 54//5
f 28//2 175//2 10//2
f 93//3 176//3 28//3
f 179//5 182//5 181//5
f 20//4 181//4 58//4
f 94//6 180//6 38//6
f 58//1 182//1 94//1
f 183//5 185//5 186//5
f 20//6 185//6 184//6
f 20//2 183//2 50//2
f 87//1 185//1 58//1
f 188//5 190//5 189//5
f 55//6 190//6 94//6
f 22//1 189//1 55//1
f 94//2 187//2 58//2
f 194//5 192//5 191//5
f 56//1 192//1 22//1
f 87//4 191//4 56//4
f 58//2 194//2 87//2
f 195//5 198//5 197//5
f 89//6 196//6 55//6
f 55//2 195//2 22//2
f 57//1 198//1 89//1
f 199//5 201//5 202//5
f 88//1 201//1 57//1
f 57//6 200//6 22//6
f 56//4 202//4 88//4
f 203//4 208//4 204//4
f 14//1 205//1 32//1
f 57//2 206//2 203//2
f 57//4 204//4 14//4
f 208//5 210//5 209//5
f 205//6 210//6 206//6
f 204//1 209//1 205//1
f 206//2 207//2 203//2
f 214//5 212//5 211//5
f 57//2 214//2 88//2
f 14//6 213//6 57//6
f 44//1 212//1 14//1
f 218//2 216//2 215//2
f 128//4 217//4 129//4
f 129//5 218//5 130//5
f 127//3 216//3 128//3
f 222//5 272//5 220//5
f 95//3 220//3 37//3
f 62//2 222//2 95//2
f 19//5 221//5 62//5
f 223//4 225//4 226//4
f 62//3 224//3 19//3
f 19//1 223//1 49//1
f 84//2 225//2 62//2
f 227//4 229//4 228//4
f 95//2 227//2 62//2
f 62//3 228//3 23//3
f 59//5 230//5 95//5
f 234//4 232//4 231//4
f 84//3 231//3 60//3
f 60//1 232//1 23//1
f 62//2 234//2 84//2
f 235//4 238//4 237//4
f 86//5 236//5 59//5
f 61//1 238//1 86//1
f 23//3 237//3 61//3
f 242//4 240//4 239//4
f 85//3 239//3 42//3
f 42//1 240//1 12//1
f 61//2 242//2 85//2
f 243//3 246//3 245//3
f 17//6 245//6 66//6
f 96//4 244//4 35//4
f 66//1 246//1 96//1
f 247//3 249//3 250//3
f 81//1 249//1 66//1
f 47//6 250//6 81//6
f 17//2 247//2 47//2
f 251//3 253//3 252//3
f 63//4 254//4 96//4
f 24//1 253//1 63//1
f 96//2 251//2 66//2
f 258//3 256//3 255//3
f 66//2 258//2 81//2
f 24//4 257//4 66//4
f 64//1 256//1 24//1
f 259//3 262//3 261//3
f 65//1 262//1 83//1
f 24//6 261//6 65//6
f 63//2 259//2 24//2
f 263//3 265//3 266//3
f 64//6 266//6 82//6
f 24//2 263//2 64//2
f 65//4 264//4 24//4
f 267//3 269//3 268//3
f 9//1 269//1 27//1
f 27//4 270//4 83//4
f 65//6 268//6 9//6
f 271//4 274//4 273//4
f 219//3 273//3 221//3
f 221//1 274//1 222//1
f 220//2 271//2 219//2
f 277//2 276//2 278//2
f 112//5 275//5 111//5
f 114//4 276//4 112//4
f 111//6 277//6 113//6
f 279//2 281//2 280//2
f 120//3 281//3 121//3
f 122//5 279//5 119//5
f 119//6 280//6 120//6
f 30//1 3//1 44//1
f 50//2 7//2 37//2
f 35//3 6//3 31//3
f 37//4 7//4 33//4
f 94//5 38//5 8//5
f 28//6 4//6 46//6
f 51//6 16//6 34//6
f 52//3 147//3 150//3
f 10//1 172//1 171//1
f 55//5 16//5 46//5
f 22//2 200//2 199//2
f 50//4 183//4 186//4
f 59//4 15//4 45//4
f 60//4 23//4 61//4
f 49//5 223//5 226//5
f 63//3 13//3 43//3
f 82//1 266//1 265//1
f 66//4 249//4 248//4
f 49//4 131//4 132//4
f 69//4 109//4 108//4
f 78//2 38//2 20//2
f 71//1 14//1 32//1
f 72//1 26//1 73//1
f 75//1 42//1 12//1
f 72//1 75//1 74//1
f 9//1 27//1 75//1
f 27//1 2//1 42//1
f 40//1 76//1 73//1
f 39//1 76//1 40//1
f 39//1 9//1 72//1
f 77//1 32//1 4//1
f 10//1 73//1 77//1
f 73//1 26//1 71//1
f 78//4 106//4 103//4
f 36//2 78//2 68//2
f 38//5 141//5 140//5
f 79//6 118//6 115//6
f 48//2 79//2 47//2
f 79//6 146//6 145//6
f 6//4 124//4 125//4
f 69//4 119//4 120//4
f 25//4 111//4 113//4
f 81//6 258//6 255//6
f 29//3 81//3 64//3
f 5//3 47//3 81//3
f 82//3 65//3 9//3
f 41//3 82//3 39//3
f 11//3 64//3 82//3
f 83//3 43//3 2//3
f 83//2 270//2 267//2
f 83//4 262//4 260//4
f 23//5 232//5 233//5
f 31//4 84//4 60//4
f 6//4 49//4 84//4
f 12//5 240//5 241//5
f 43//4 85//4 42//4
f 13//4 60//4 85//4
f 86//4 45//4 3//4
f 61//4 86//4 30//4
f 59//2 236//2 235//2
f 22//6 192//6 193//6
f 33//5 87//5 56//5
f 7//5 50//5 87//5
f 88//4 214//4 211//4
f 45//5 88//5 44//5
f 15//5 56//5 88//5
f 89//5 46//5 4//5
f 32//6 205//6 206//6
f 22//4 195//4 197//4
f 90//5 170//5 167//5
f 41//6 90//6 52//6
f 1//6 40//6 90//6
f 18//5 152//5 153//5
f 29//6 91//6 48//6
f 11//6 52//6 91//6
f 92//6 34//6 8//6
f 53//3 155//3 156//3
f 92//5 162//5 160//5
f 51//6 93//6 46//6
f 93//1 166//1 163//1
f 93//1 54//1 177//1
f 94//5 34//5 16//5
f 58//4 187//4 188//4
f 38//2 180//2 179//2
f 95//4 33//4 15//4
f 23//1 228//1 229//1
f 37//1 220//1 219//1
f 96//3 31//3 13//3
f 66//6 251//6 252//6
f 35//2 244//2 243//2
f 67//5 127//5 128//5
f 25//3 100//3 101//3
f 97//6 138//6 135//6
f 98//1 44//1 14//1
f 74//1 98//1 71//1
f 74//1 12//1 30//1
f 99//2 102//2 101//2
f 97//5 102//5 99//5
f 70//6 99//6 100//6
f 67//4 101//4 102//4
f 106//2 105//2 104//2
f 70//3 105//3 106//3
f 25//6 104//6 105//6
f 68//5 103//5 104//5
f 107//2 108//2 109//2
f 79//3 110//3 109//3
f 68//6 107//6 110//6
f 25//5 108//5 107//5
f 113//3 277//3 278//3
f 67//3 112//3 111//3
f 80//6 114//6 112//6
f 69//5 113//5 114//5
f 118//2 117//2 116//2
f 69//5 117//5 118//5
f 47//3 115//3 116//3
f 17//4 116//4 117//4
f 121//4 281//4 282//4
f 80//3 122//3 119//3
f 17//5 120//5 121//5
f 35//6 121//6 122//6
f 126//2 125//2 124//2
f 35//3 123//3 124//3
f 80//6 126//6 123//6
f 49//5 125//5 126//5
f 130//6 218//6 215//6
f 19//6 128//6 129//6
f 97//4 130//4 127//4
f 37//3 129//3 130//3
f 134//2 133//2 132//2
f 67//6 133//6 134//6
f 19//5 132//5 133//5
f 80//3 134//3 131//3
f 136//2 135//2 138//2
f 70//5 137//5 138//5
f 20//4 136//4 137//4
f 50//3 135//3 136//3
f 139//2 140//2 141//2
f 8//6 140//6 139//6
f 78//4 142//4 141//4
f 36//3 139//3 142//3
f 144//2 145//2 146//2
f 48//5 143//5 146//5
f 68//3 145//3 144//3
f 18//4 144//4 143//4
f 147//6 148//6 149//6
f 21//1 148//1 147//1
f 53//5 149//5 148//5
f 91//2 150//2 149//2
f 154//6 153//6 152//6
f 48//2 151//2 152//2
f 91//3 154//3 151//3
f 91//1 53//1 153//1
f 155//6 158//6 157//6
f 18//2 156//2 157//2
f 92//1 158//1 155//1
f 36//5 157//5 158//5
f 159//6 160//6 162//6
f 53//2 161//2 162//2
f 21//3 159//3 161//3
f 51//1 160//1 159//1
f 164//6 163//6 166//6
f 54//3 163//3 164//3
f 51//5 165//5 166//5
f 21//2 164//2 165//2
f 170//6 169//6 168//6
f 54//2 169//2 170//2
f 21//3 168//3 169//3
f 52//1 167//1 168//1
f 171//6 172//6 173//6
f 90//2 174//2 173//2
f 54//5 173//5 172//5
f 40//3 171//3 174//3
f 175//6 176//6 178//6
f 10//5 175//5 177//5
f 28//2 176//2 175//2
f 93//3 178//3 176//3
f 179//5 180//5 182//5
f 20//4 179//4 181//4
f 94//6 182//6 180//6
f 58//1 181//1 182//1
f 183//5 184//5 185//5
f 20//6 58//6 185//6
f 20//2 184//2 183//2
f 87//1 186//1 185//1
f 188//5 187//5 190//5
f 55//6 189//6 190//6
f 22//1 188//1 189//1
f 94//2 190//2 187//2
f 194//5 193//5 192//5
f 56//1 191//1 192//1
f 87//4 194//4 191//4
f 58//2 193//2 194//2
f 195//5 196//5 198//5
f 89//6 198//6 196//6
f 55//2 196//2 195//2
f 57//1 197//1 198//1
f 199//5 200//5 201//5
f 88//1 202//1 201//1
f 57//6 201//6 200//6
f 56//4 199//4 202//4
f 203//4 207//4 208//4
f 14//1 204//1 205//1
f 57//2 89//2 206//2
f 57//4 203//4 204//4
f 208//5 207//5 210//5
f 205//6 209//6 210//6
f 204//1 208//1 209//1
f 206//2 210//2 207//2
f 214//5 213//5 212//5
f 57//2 213//2 214//2
f 14//6 212//6 213//6
f 44//1 211//1 212//1
f 218//2 217//2 216//2
f 128//4 216//4 217//4
f 129//5 217//5 218//5
f 127//3 215//3 216//3
f 222//5 274//5 272//5
f 95//3 222//3 220//3
f 62//2 221//2 222//2
f 19//5 219//5 221//5
f 223//4 224//4 225//4
f 62//3 225//3 224//3
f 19//1 224//1 223//1
f 84//2 226//2 225//2
f 227//4 230//4 229//4
f 95//2 230//2 227//2
f 62//3 227//3 228//3
f 59//5 229//5 230//5
f 234//4 233//4 232//4
f 84//3 234//3 231//3
f 60//1 231//1 232//1
f 62//2 233//2 234//2
f 235//4 236//4 238//4
f 86//5 238//5 236//5
f 61//1 237//1 238//1
f 23//3 235//3 237//3
f 242//4 241//4 240//4
f 85//3 242//3 239//3
f 42//1 239//1 240//1
f 61//2 241//2 242//2
f 243//3 244//3 246//3
f 17//6 243//6 245//6
f 96//4 246//4 244//4
f 66//1 245//1 246//1
f 247//3 248//3 249//3
f 81//1 250//1 249//1
f 47//6 247//6 250//6
f 17//2 248//2 247//2
f 251//3 254//3 253//3
f 63//4 253//4 254//4
f 24//1 252//1 253//1
f 96//2 254//2 251//2
f 258//3 257//3 256//3
f 66//2 257//2 258//2
f 24//4 256//4 257//4
f 64//1 255//1 256//1
f 259//3 260//3 262//3
f 65//1 261//1 262//1
f 24//6 259//6 261//6
f 63//2 260//2 259//2
f 263//3 264//3 265//3
f 64//6 263//6 266//6
f 24//2 264//2 263//2
f 65//4 265//4 264//4
f 267//3 270//3 269//3
f 9//1 268//1 269//1
f 27//4 269//4 270//4
f 65//6 267//6 268//6
f 271//4 272//4 274//4
f 219//3 271//3 273//3
f 221//1 273//1 274//1
f 220//2 272//2 271//2
f 277//2 275//2 276//2
f 112//5 276//5 275//5
f 114//4 278//4 276//4
f 111//6 275//6 277//6
f 279//2 282//2 281//2
f 120//3 280//3 281//3
f 122//5 282//5 279//5
f 119//6 279//6 280//6
