# Blender v2.79 (sub 0) OBJ File: ''
# www.blender.org
o Cube
v 1.000000 -1.000000 -1.000000
v 1.000000 -1.000000 1.000000
v -1.000000 -1.000000 1.000000
v -1.000000 -1.000000 -1.000000
v 1.000000 1.000000 -0.999999
v 0.999999 1.000000 1.000001
v -1.000000 1.000000 1.000000
v -1.000000 1.000000 -1.000000
v 1.000000 -1.000000 0.000000
v 0.000000 -1.000000 -1.000000
v 1.000000 0.000000 -1.000000
v 0.000000 -1.000000 1.000000
v 1.000000 0.000000 1.000000
v -1.000000 -1.000000 -0.000000
v -1.000000 0.000000 1.000000
v -1.000000 0.000000 -1.000000
v 1.000000 1.000000 0.000001
v 0.000000 1.000000 -1.000000
v -0.000001 1.000000 1.000000
v -1.000000 1.000000 -0.000000
v 0.000000 0.000000 -1.000000
v -1.000000 0.000000 -0.000000
v -0.000000 0.000000 1.000000
v 1.000000 0.000000 0.000000
v -0.000000 1.000000 0.000000
v 0.000000 -1.000000 -0.000000
v 1.000000 -1.000000 0.500000
v -0.500000 -1.000000 -1.000000
v 1.000000 0.500000 -1.000000
v -0.500000 -1.000000 1.000000
v 1.000000 0.500000 1.000000
v -1.000000 -1.000000 -0.500000
v -1.000000 0.500000 1.000000
v -1.000000 0.500000 -1.000000
v 1.000000 1.000000 0.500001
v -0.500000 1.000000 -1.000000
v -0.500000 1.000000 1.000000
v -1.000000 1.000000 -0.500000
v 1.000000 -1.000000 -0.500000
v 0.500000 -1.000000 -1.000000
v 1.000000 -0.500000 -1.000000
v 0.500000 -1.000000 1.000000
v 1.000000 -0.500000 1.000000
v -1.000000 -1.000000 0.500000
v -1.000000 -0.500000 1.000000
v -1.000000 -0.500000 -1.000000
v 1.000000 1.000000 -0.499999
v 0.500000 1.000000 -1.000000
v 0.499999 1.000000 1.000000
v -1.000000 1.000000 0.500000
v -0.500000 0.000000 -1.000000
v 0.500000 0.000000 -1.000000
v 0.000000 0.500000 -1.000000
v 0.000000 -0.500000 -1.000000
v -1.000000 0.000000 -0.500000
v -1.000000 0.000000 0.500000
v -1.000000 -0.500000 -0.000000
v -1.000000 0.500000 -0.000000
v -0.500000 0.000000 1.000000
v 0.500000 0.000000 1.000000
v -0.000000 -0.500000 1.000000
v -0.000000 0.500000 1.000000
v 1.000000 0.000000 0.500000
v 1.000000 0.000000 -0.500000
v 1.000000 -0.500000 0.000000
v 1.000000 0.500000 0.000000
v -0.000000 1.000000 0.500000
v 0.000000 1.000000 -0.500000
v 0.500000 1.000000 0.000000
v -0.500000 1.000000 0.000000
v -0.500000 -1.000000 -0.000000
v 0.500000 -1.000000 -0.000000
v 0.000000 -1.000000 -0.500000
v 0.000000 -1.000000 0.500000
v 0.500000 -1.000000 0.500000
v 0.500000 -1.000000 -0.500000
v -0.500000 -1.000000 -0.500000
v -0.500000 1.000000 -0.500000
v 0.500000 1.000000 -0.500000
v 0.500000 1.000000 0.500000
v 1.000000 0.500000 -0.500000
v 1.000000 -0.500000 -0.500000
v 1.000000 -0.500000 0.500000
v 0.500000 0.500000 1.000000
v 0.500000 -0.500000 1.000000
v -0.500000 -0.500000 1.000000
v -1.000000 0.500000 0.500000
v -1.000000 -0.500000 0.500000
v -1.000000 -0.500000 -0.500000
v 0.500000 -0.500000 -1.000000
v 0.500000 0.500000 -1.000000
v -0.500000 0.500000 -1.000000
v -0.500000 -0.500000 -1.000000
v -1.000000 0.500000 -0.500000
v -0.500000 0.500000 1.000000
v 1.000000 0.500000 0.500000
v -0.500000 1.000000 0.500000
v -0.500000 -1.000000 0.500000
v 0.000000 1.043663 -0.500000
v -0.000000 1.043663 0.000000
v -0.500000 1.043663 0.000000
v -0.500000 1.043663 -0.500000
v -0.500000 1.037522 0.000000
v -0.000000 1.037522 0.000000
v -0.000000 1.037522 0.500000
v -0.500000 1.037522 0.500000
v -0.000000 1.059271 0.000000
v -0.000000 1.059271 0.500000
v 0.500000 1.059271 0.000000
v 0.500000 1.059271 0.500000
v 0.000000 1.022515 -0.500000
v -0.000000 1.022515 0.000000
v 0.500000 1.022515 0.000000
v 0.500000 1.022515 -0.500000
v 1.000000 1.060665 -0.999999
v 1.000000 1.060665 -0.499999
v 0.500000 1.060665 -1.000000
v 0.500000 1.060665 -0.500000
v 0.500000 1.016770 -1.000000
v 0.000000 1.016770 -1.000000
v 0.000000 1.016770 -0.500000
v 0.500000 1.016770 -0.500000
v 0.000000 1.071293 -1.000000
v -0.500000 1.071293 -1.000000
v 0.000000 1.071293 -0.500000
v -0.500000 1.071293 -0.500000
v -1.000000 1.016111 -0.000000
v -1.000000 1.016111 -0.500000
v -0.500000 1.016111 0.000000
v -0.500000 1.016111 -0.500000
v -0.500000 1.041510 -1.000000
v -1.000000 1.041510 -1.000000
v -1.000000 1.041510 -0.500000
v -0.500000 1.041510 -0.500000
v -1.000000 1.006764 0.500000
v -1.000000 1.006764 -0.000000
v -0.500000 1.006764 0.000000
v -0.500000 1.006764 0.500000
v -0.500000 1.030299 1.000000
v -1.000000 1.030299 1.000000
v -1.000000 1.030299 0.500000
v -0.500000 1.030299 0.500000
v -0.000000 1.079619 0.500000
v -0.000001 1.079619 1.000000
v -0.500000 1.079619 1.000000
v -0.500000 1.079619 0.500000
v 0.499999 1.010861 1.000000
v -0.000001 1.010861 1.000000
v -0.000000 1.010861 0.500000
v 0.500000 1.010861 0.500000
v 1.000000 1.014409 0.500001
v 0.999999 1.014409 1.000001
v 0.499999 1.014409 1.000000
v 0.500000 1.014409 0.500000
v 0.500000 1.019762 0.000000
v 1.000000 1.019762 0.000001
v 1.000000 1.019762 0.500001
v 0.500000 1.019762 0.500000
v 1.000000 1.018464 -0.499999
v 1.000000 1.018464 0.000001
v 0.500000 1.018464 0.000000
v 0.500000 1.018464 -0.500000
vn 0.0000 -1.0000 0.0000
vn -0.0000 0.0000 1.0000
vn 1.0000 0.0000 0.0000
vn -1.0000 -0.0000 -0.0000
vn 0.0000 0.0000 -1.0000
vn 0.0000 1.0000 0.0000
s off
f 30//1 44//1 98//1
f 37//2 140//2 7//2
f 35//3 31//3 96//3
f 37//2 33//2 95//2
f 94//4 8//4 34//4
f 28//5 46//5 93//5
f 51//5 34//5 92//5
f 52//5 53//5 91//5
f 40//5 54//5 90//5
f 55//4 46//4 89//4
f 56//4 57//4 88//4
f 50//4 58//4 87//4
f 59//2 45//2 86//2
f 60//2 61//2 85//2
f 49//2 62//2 84//2
f 63//3 43//3 83//3
f 64//3 65//3 82//3
f 47//3 66//3 81//3
f 80//3 147//3 49//3
f 25//4 111//4 68//4
f 70//2 127//2 20//2
f 71//1 32//1 77//1
f 72//1 73//1 76//1
f 75//1 12//1 74//1
f 72//1 74//1 26//1
f 9//1 75//1 72//1
f 27//1 42//1 75//1
f 40//1 73//1 10//1
f 39//1 40//1 1//1
f 39//1 72//1 76//1
f 77//1 4//1 28//1
f 10//1 77//1 28//1
f 73//1 71//1 77//1
f 25//2 101//2 70//2
f 18//3 125//3 68//3
f 78//2 133//2 38//2
f 79//5 159//5 47//5
f 48//5 115//5 5//5
f 48//3 122//3 79//3
f 35//3 152//3 6//3
f 17//3 157//3 35//3
f 25//5 109//5 69//5
f 81//3 24//3 64//3
f 29//3 64//3 11//3
f 5//3 81//3 29//3
f 82//3 9//3 39//3
f 41//3 39//3 1//3
f 11//3 82//3 41//3
f 83//3 2//3 27//3
f 65//3 27//3 9//3
f 24//3 83//3 65//3
f 84//2 23//2 60//2
f 31//2 60//2 13//2
f 6//2 84//2 31//2
f 85//2 12//2 42//2
f 43//2 42//2 2//2
f 13//2 85//2 43//2
f 86//2 3//2 30//2
f 61//2 30//2 12//2
f 23//2 86//2 61//2
f 87//4 22//4 56//4
f 33//4 56//4 15//4
f 7//4 87//4 33//4
f 88//4 14//4 44//4
f 45//4 44//4 3//4
f 15//4 88//4 45//4
f 89//4 4//4 32//4
f 14//4 89//4 32//4
f 22//4 89//4 57//4
f 90//5 21//5 52//5
f 41//5 52//5 11//5
f 1//5 90//5 41//5
f 91//5 18//5 48//5
f 29//5 48//5 5//5
f 11//5 91//5 29//5
f 92//5 8//5 36//5
f 53//5 36//5 18//5
f 21//5 92//5 53//5
f 51//5 46//5 16//5
f 54//5 51//5 21//5
f 10//5 93//5 54//5
f 94//4 16//4 55//4
f 22//4 94//4 55//4
f 20//4 94//4 58//4
f 95//2 15//2 59//2
f 62//2 59//2 23//2
f 19//2 95//2 62//2
f 96//3 13//3 63//3
f 66//3 63//3 24//3
f 17//3 96//3 66//3
f 19//2 145//2 37//2
f 70//5 104//5 25//5
f 20//5 137//5 70//5
f 98//1 14//1 71//1
f 74//1 71//1 26//1
f 74//1 30//1 98//1
f 102//6 100//6 99//6
f 68//3 100//3 25//3
f 78//5 99//5 68//5
f 70//4 102//4 78//4
f 103//6 105//6 104//6
f 67//2 106//2 97//2
f 25//3 105//3 67//3
f 97//4 103//4 70//4
f 109//6 108//6 110//6
f 67//4 107//4 25//4
f 80//2 108//2 67//2
f 69//3 110//3 80//3
f 111//6 113//6 114//6
f 69//2 112//2 25//2
f 79//3 113//3 69//3
f 68//5 114//5 79//5
f 117//6 116//6 115//6
f 79//4 117//4 48//4
f 47//2 118//2 79//2
f 5//3 116//3 47//3
f 120//6 122//6 119//6
f 68//4 120//4 18//4
f 18//5 119//5 48//5
f 79//2 121//2 68//2
f 124//6 125//6 123//6
f 78//4 124//4 36//4
f 36//5 123//5 18//5
f 68//2 126//2 78//2
f 130//6 127//6 129//6
f 38//5 130//5 78//5
f 20//4 128//4 38//4
f 78//3 129//3 70//3
f 131//6 133//6 134//6
f 36//3 134//3 78//3
f 38//4 132//4 8//4
f 8//5 131//5 36//5
f 136//6 138//6 137//6
f 50//4 136//4 20//4
f 97//2 135//2 50//2
f 70//3 138//3 97//3
f 141//6 139//6 142//6
f 97//3 139//3 37//3
f 50//5 142//5 97//5
f 7//4 141//4 50//4
f 146//6 144//6 143//6
f 97//5 143//5 67//5
f 37//4 146//4 97//4
f 67//3 144//3 19//3
f 150//6 148//6 147//6
f 49//2 148//2 19//2
f 67//5 150//5 80//5
f 19//4 149//4 67//4
f 154//6 152//6 151//6
f 80//5 151//5 35//5
f 49//4 154//4 80//4
f 6//2 153//2 49//2
f 155//6 157//6 156//6
f 35//2 158//2 80//2
f 69//5 156//5 17//5
f 80//4 155//4 69//4
f 162//6 160//6 159//6
f 69//4 162//4 79//4
f 47//3 160//3 17//3
f 17//2 161//2 69//2
f 30//1 3//1 44//1
f 37//2 139//2 140//2
f 35//3 6//3 31//3
f 37//2 7//2 33//2
f 94//4 38//4 8//4
f 28//5 4//5 46//5
f 51//5 16//5 34//5
f 52//5 21//5 53//5
f 40//5 10//5 54//5
f 55//4 16//4 46//4
f 56//4 22//4 57//4
f 50//4 20//4 58//4
f 59//2 15//2 45//2
f 60//2 23//2 61//2
f 49//2 19//2 62//2
f 63//3 13//3 43//3
f 64//3 24//3 65//3
f 47//3 17//3 66//3
f 80//3 150//3 147//3
f 25//4 112//4 111//4
f 70//2 129//2 127//2
f 71//1 14//1 32//1
f 72//1 26//1 73//1
f 75//1 42//1 12//1
f 72//1 75//1 74//1
f 9//1 27//1 75//1
f 27//1 2//1 42//1
f 40//1 76//1 73//1
f 39//1 76//1 40//1
f 39//1 9//1 72//1
f 77//1 32//1 4//1
f 10//1 73//1 77//1
f 73//1 26//1 71//1
f 25//2 100//2 101//2
f 18//3 123//3 125//3
f 78//2 134//2 133//2
f 79//5 162//5 159//5
f 48//5 117//5 115//5
f 48//3 119//3 122//3
f 35//3 151//3 152//3
f 17//3 156//3 157//3
f 25//5 107//5 109//5
f 81//3 66//3 24//3
f 29//3 81//3 64//3
f 5//3 47//3 81//3
f 82//3 65//3 9//3
f 41//3 82//3 39//3
f 11//3 64//3 82//3
f 83//3 43//3 2//3
f 65//3 83//3 27//3
f 24//3 63//3 83//3
f 84//2 62//2 23//2
f 31//2 84//2 60//2
f 6//2 49//2 84//2
f 85//2 61//2 12//2
f 43//2 85//2 42//2
f 13//2 60//2 85//2
f 86//2 45//2 3//2
f 61//2 86//2 30//2
f 23//2 59//2 86//2
f 87//4 58//4 22//4
f 33//4 87//4 56//4
f 7//4 50//4 87//4
f 88//4 57//4 14//4
f 45//4 88//4 44//4
f 15//4 56//4 88//4
f 89//4 46//4 4//4
f 14//4 57//4 89//4
f 22//4 55//4 89//4
f 90//5 54//5 21//5
f 41//5 90//5 52//5
f 1//5 40//5 90//5
f 91//5 53//5 18//5
f 29//5 91//5 48//5
f 11//5 52//5 91//5
f 92//5 34//5 8//5
f 53//5 92//5 36//5
f 21//5 51//5 92//5
f 51//5 93//5 46//5
f 54//5 93//5 51//5
f 10//5 28//5 93//5
f 94//4 34//4 16//4
f 22//4 58//4 94//4
f 20//4 38//4 94//4
f 95//2 33//2 15//2
f 62//2 95//2 59//2
f 19//2 37//2 95//2
f 96//3 31//3 13//3
f 66//3 96//3 63//3
f 17//3 35//3 96//3
f 19//2 144//2 145//2
f 70//5 103//5 104//5
f 20//5 136//5 137//5
f 98//1 44//1 14//1
f 74//1 98//1 71//1
f 74//1 12//1 30//1
f 102//6 101//6 100//6
f 68//3 99//3 100//3
f 78//5 102//5 99//5
f 70//4 101//4 102//4
f 103//6 106//6 105//6
f 67//2 105//2 106//2
f 25//3 104//3 105//3
f 97//4 106//4 103//4
f 109//6 107//6 108//6
f 67//4 108//4 107//4
f 80//2 110//2 108//2
f 69//3 109//3 110//3
f 111//6 112//6 113//6
f 69//2 113//2 112//2
f 79//3 114//3 113//3
f 68//5 111//5 114//5
f 117//6 118//6 116//6
f 79//4 118//4 117//4
f 47//2 116//2 118//2
f 5//3 115//3 116//3
f 120//6 121//6 122//6
f 68//4 121//4 120//4
f 18//5 120//5 119//5
f 79//2 122//2 121//2
f 124//6 126//6 125//6
f 78//4 126//4 124//4
f 36//5 124//5 123//5
f 68//2 125//2 126//2
f 130//6 128//6 127//6
f 38//5 128//5 130//5
f 20//4 127//4 128//4
f 78//3 130//3 129//3
f 131//6 132//6 133//6
f 36//3 131//3 134//3
f 38//4 133//4 132//4
f 8//5 132//5 131//5
f 136//6 135//6 138//6
f 50//4 135//4 136//4
f 97//2 138//2 135//2
f 70//3 137//3 138//3
f 141//6 140//6 139//6
f 97//3 142//3 139//3
f 50//5 141//5 142//5
f 7//4 140//4 141//4
f 146//6 145//6 144//6
f 97//5 146//5 143//5
f 37//4 145//4 146//4
f 67//3 143//3 144//3
f 150//6 149//6 148//6
f 49//2 147//2 148//2
f 67//5 149//5 150//5
f 19//4 148//4 149//4
f 154//6 153//6 152//6
f 80//5 154//5 151//5
f 49//4 153//4 154//4
f 6//2 152//2 153//2
f 155//6 158//6 157//6
f 35//2 157//2 158//2
f 69//5 155//5 156//5
f 80//4 158//4 155//4
f 162//6 161//6 160//6
f 69//4 161//4 162//4
f 47//3 159//3 160//3
f 17//2 160//2 161//2
